<?xml version="1.0" encoding="UTF-8"?>
<svg version="1.1" viewBox="0 0 800 800" xmlns="http://www.w3.org/2000/svg">
<defs>
<linearGradient id="a" x1="50%" x2="50%" y2="100%">
<stop stop-color="hsl(184, 74%, 44%)" style="--darkreader-inline-stopcolor:#17939c" data-darkreader-inline-stopcolor="" offset="0"/>
<stop stop-color="hsl(332, 87%, 70%)" style="--darkreader-inline-stopcolor:#850943" data-darkreader-inline-stopcolor="" offset="1"/>
</linearGradient>
</defs>
<g fill="none" stroke="url(#a)" stroke-width="6.5">
<path transform="rotate(85 400 400)" d="m304.47-977.83c59.115-34.124 131.95-34.124 191.06 0.0095532l1049.9 606.18c59.115 34.124 95.532 97.204 95.532 165.46v1212.4c0 68.258-36.417 131.34-95.532 165.47l-1049.9 606.18c-59.115 34.124-131.95 34.124-191.06-0.0095532l-1049.9-606.18c-59.115-34.124-95.532-97.204-95.532-165.46v-1212.4c0-68.258 36.417-131.34 95.532-165.47l1049.9-606.18z" opacity=".54"/>
<path transform="rotate(82.5 400 400)" d="m307.28-937.31c57.377-33.12 128.07-33.12 185.44 0.0092722l1019.1 588.35c57.377 33.12 92.722 94.345 92.722 160.6v1176.7c0 66.25-35.346 127.47-92.722 160.6l-1019.1 588.35c-57.377 33.12-128.07 33.12-185.44-0.0092722l-1019.1-588.35c-57.377-33.12-92.722-94.345-92.722-160.6v-1176.7c0-66.25 35.346-127.47 92.722-160.6l1019.1-588.35z" opacity=".11"/>
<path transform="rotate(80 400 400)" d="m310.09-896.78c55.638-32.117 124.19-32.117 179.83 0.0089913l988.17 570.52c55.638 32.117 89.913 91.486 89.913 155.73v1141c0 64.243-34.275 123.61-89.913 155.74l-988.17 570.52c-55.638 32.117-124.19 32.117-179.83-0.0089913l-988.17-570.52c-55.638-32.117-89.913-91.486-89.913-155.73v-1141c0-64.243 34.275-123.61 89.913-155.74l988.17-570.52z" opacity=".22"/>
<path transform="rotate(77.5 400 400)" d="m312.9-856.26c53.899-31.113 120.31-31.113 174.21 0.0087103l957.29 552.69c53.899 31.113 87.103 88.627 87.103 150.86v1105.4c0 62.235-33.204 119.75-87.103 150.87l-957.29 552.69c-53.899 31.113-120.31 31.113-174.21-0.0087103l-957.29-552.69c-53.899-31.113-87.103-88.627-87.103-150.86v-1105.4c0-62.235 33.204-119.75 87.103-150.87l957.29-552.69z" opacity=".98"/>
<path transform="rotate(75 400 400)" d="m315.71-815.73c52.161-30.109 116.43-30.109 168.59 0.0084293l926.41 534.86c52.161 30.109 84.293 85.768 84.293 146v1069.7c0 60.227-32.132 115.89-84.293 146l-926.41 534.86c-52.161 30.109-116.43 30.109-168.59-0.0084293l-926.41-534.86c-52.161-30.109-84.293-85.768-84.293-146v-1069.7c0-60.227 32.132-115.89 84.293-146l926.41-534.86z" opacity=".56"/>
<path transform="rotate(72.5 400 400)" d="m318.52-775.21c50.422-29.106 112.54-29.106 162.97 0.0081483l895.53 517.04c50.422 29.106 81.483 82.909 81.483 141.13v1034.1c0 58.22-31.061 112.02-81.483 141.14l-895.53 517.04c-50.422 29.106-112.54 29.106-162.97-0.0081483l-895.53-517.04c-50.422-29.106-81.483-82.909-81.483-141.13v-1034.1c0-58.22 31.061-112.02 81.483-141.14l895.53-517.04z" opacity=".28"/>
<path transform="rotate(70 400 400)" d="m321.33-734.68c48.683-28.102 108.66-28.102 157.35 0.0078673l864.65 499.21c48.683 28.102 78.673 80.05 78.673 136.26v998.41c0 56.212-29.99 108.16-78.673 136.27l-864.65 499.21c-48.683 28.102-108.66 28.102-157.35-0.0078673l-864.65-499.21c-48.683-28.102-78.673-80.05-78.673-136.26v-998.41c0-56.212 29.99-108.16 78.673-136.27l864.65-499.21z" opacity=".27"/>
<path transform="rotate(67.5 400 400)" d="m324.14-694.16c46.944-27.099 104.78-27.099 151.73 0.0075864l833.77 481.38c46.944 27.099 75.864 77.191 75.864 131.4v962.76c0 54.205-28.919 104.3-75.864 131.4l-833.77 481.38c-46.944 27.099-104.78 27.099-151.73-0.0075864l-833.77-481.38c-46.944-27.099-75.864-77.191-75.864-131.4v-962.76c0-54.205 28.919-104.3 75.864-131.4l833.77-481.38z" opacity=".82"/>
<path transform="rotate(65 400 400)" d="m326.95-653.64c45.206-26.095 100.9-26.095 146.11 0.0073054l802.89 463.55c45.206 26.095 73.054 74.332 73.054 126.53v927.1c0 52.197-27.848 100.43-73.054 126.54l-802.89 463.55c-45.206 26.095-100.9 26.095-146.11-0.0073054l-802.89-463.55c-45.206-26.095-73.054-74.332-73.054-126.53v-927.1c0-52.197 27.848-100.43 73.054-126.54l802.89-463.55z" opacity=".94"/>
<path transform="rotate(62.5 400 400)" d="m329.76-613.11c43.467-25.091 97.021-25.091 140.49 0.0070244l772.01 445.72c43.467 25.091 70.244 71.473 70.244 121.66v891.44c0 50.189-26.777 96.572-70.244 121.67l-772.01 445.72c-43.467 25.091-97.021 25.091-140.49-0.0070244l-772.01-445.72c-43.467-25.091-70.244-71.473-70.244-121.66v-891.44c0-50.189 26.777-96.572 70.244-121.67l772.01-445.72z" opacity=".91"/>
<path transform="rotate(60 400 400)" d="m332.57-572.59c41.728-24.088 93.14-24.088 134.87 0.0067434l741.13 427.89c41.728 24.088 67.434 68.615 67.434 116.8v855.78c0 48.182-25.706 92.709-67.434 116.8l-741.13 427.89c-41.728 24.088-93.14 24.088-134.87-0.0067434l-741.13-427.89c-41.728-24.088-67.434-68.615-67.434-116.8v-855.78c0-48.182 25.706-92.709 67.434-116.8l741.13-427.89z" opacity=".09"/>
<path transform="rotate(57.5 400 400)" d="m335.38-532.06c39.99-23.084 89.26-23.084 129.25 0.0064625l710.25 410.06c39.99 23.084 64.625 65.756 64.625 111.93v820.13c0 46.174-24.635 88.846-64.625 111.94l-710.25 410.06c-39.99 23.084-89.26 23.084-129.25-0.0064625l-710.25-410.06c-39.99-23.084-64.625-65.756-64.625-111.93v-820.13c0-46.174 24.635-88.846 64.625-111.94l710.25-410.06z" opacity=".47"/>
<path transform="rotate(55 400 400)" d="m338.19-491.54c38.251-22.08 85.379-22.08 123.63 0.0061815l679.37 392.23c38.251 22.08 61.815 62.897 61.815 107.06v784.47c0 44.167-23.564 84.983-61.815 107.07l-679.37 392.23c-38.251 22.08-85.379 22.08-123.63-0.0061815l-679.37-392.23c-38.251-22.08-61.815-62.897-61.815-107.06v-784.47c0-44.167 23.564-84.983 61.815-107.07l679.37-392.23z" opacity=".53"/>
<path transform="rotate(52.5 400 400)" d="m340.99-451.01c36.512-21.077 81.498-21.077 118.01 0.0059005l648.49 374.41c36.512 21.077 59.005 60.038 59.005 102.2v748.81c0 42.159-22.493 81.12-59.005 102.2l-648.49 374.41c-36.512 21.077-81.498 21.077-118.01-0.0059005l-648.49-374.41c-36.512-21.077-59.005-60.038-59.005-102.2v-748.81c0-42.159 22.493-81.12 59.005-102.2l648.49-374.41z" opacity=".68"/>
<path transform="rotate(50 400 400)" d="m343.8-410.49c34.774-20.073 77.617-20.073 112.39 0.0056195l617.61 356.58c34.774 20.073 56.195 57.179 56.195 97.33v713.15c0 40.152-21.422 77.257-56.195 97.336l-617.61 356.58c-34.774 20.073-77.617 20.073-112.39-0.0056195l-617.61-356.58c-34.774-20.073-56.195-57.179-56.195-97.33v-713.15c0-40.152 21.422-77.257 56.195-97.336l617.61-356.58z" opacity=".76"/>
<path transform="rotate(47.5 400 400)" d="m346.61-369.96c33.035-19.069 73.736-19.069 106.77 0.0053386l586.73 338.75c33.035 19.069 53.386 54.32 53.386 92.464v677.5c0 38.144-20.351 73.394-53.386 92.469l-586.73 338.75c-33.035 19.069-73.736 19.069-106.77-0.0053386l-586.73-338.75c-33.035-19.069-53.386-54.32-53.386-92.464v-677.5c0-38.144 20.351-73.394 53.386-92.469l586.73-338.75z" opacity=".51"/>
<path transform="rotate(45 400 400)" d="m349.42-329.44c31.296-18.066 69.855-18.066 101.15 0.0050576l555.85 320.92c31.296 18.066 50.576 51.461 50.576 87.597v641.84c0 36.136-19.279 69.532-50.576 87.602l-555.85 320.92c-31.296 18.066-69.855 18.066-101.15-0.0050576l-555.85-320.92c-31.296-18.066-50.576-51.461-50.576-87.597v-641.84c0-36.136 19.279-69.532 50.576-87.602l555.85-320.92z" opacity=".49"/>
<path transform="rotate(42.5 400 400)" d="m352.23-288.92c29.558-17.062 65.974-17.062 95.532 0.0047766l524.97 303.09c29.558 17.062 47.766 48.602 47.766 82.731v606.18c0 34.129-18.208 65.669-47.766 82.736l-524.97 303.09c-29.558 17.062-65.974 17.062-95.532-0.0047766l-524.97-303.09c-29.558-17.062-47.766-48.602-47.766-82.731v-606.18c0-34.129 18.208-65.669 47.766-82.736l524.97-303.09z" opacity=".35"/>
<path transform="rotate(40 400 400)" d="m355.04-248.39c27.819-16.058 62.094-16.058 89.913 0.0044956l494.09 285.26c27.819 16.058 44.956 45.743 44.956 77.864v570.52c0 32.121-17.137 61.806-44.956 77.869l-494.09 285.26c-27.819 16.058-62.094 16.058-89.913-0.0044956l-494.09-285.26c-27.819-16.058-44.956-45.743-44.956-77.864v-570.52c0-32.121 17.137-61.806 44.956-77.869l494.09-285.26z" opacity=".63"/>
<path transform="rotate(37.5 400 400)" d="m357.85-207.87c26.08-15.055 58.213-15.055 84.293 0.0042147l463.21 267.43c26.08 15.055 42.147 42.884 42.147 72.998v534.86c0 30.114-16.066 57.943-42.147 73.002l-463.21 267.43c-26.08 15.055-58.213 15.055-84.293-0.0042147l-463.21-267.43c-26.08-15.055-42.147-42.884-42.147-72.998v-534.86c0-30.114 16.066-57.943 42.147-73.002l463.21-267.43z" opacity=".8"/>
<path transform="rotate(35 400 400)" d="m360.66-167.34c24.342-14.051 54.332-14.051 78.673 0.0039337l432.33 249.6c24.342 14.051 39.337 40.025 39.337 68.131v499.21c0 28.106-14.995 54.08-39.337 68.135l-432.33 249.6c-24.342 14.051-54.332 14.051-78.673-0.0039337l-432.33-249.6c-24.342-14.051-39.337-40.025-39.337-68.131v-499.21c0-28.106 14.995-54.08 39.337-68.135l432.33-249.6z" opacity=".58"/>
<path transform="rotate(32.5 400 400)" d="m363.47-126.82c22.603-13.047 50.451-13.047 73.054 0.0036527l401.45 231.77c22.603 13.047 36.527 37.166 36.527 63.265v463.55c0 26.099-13.924 50.217-36.527 63.268l-401.45 231.77c-22.603 13.047-50.451 13.047-73.054-0.0036527l-401.45-231.77c-22.603-13.047-36.527-37.166-36.527-63.265v-463.55c0-26.099 13.924-50.217 36.527-63.268l401.45-231.77z" opacity=".47"/>
<path transform="rotate(30 400 400)" d="m366.28-86.293c20.864-12.044 46.57-12.044 67.434 0.0033717l370.57 213.95c20.864 12.044 33.717 34.307 33.717 58.398v427.89c0 24.091-12.853 46.354-33.717 58.402l-370.57 213.95c-20.864 12.044-46.57 12.044-67.434-0.0033717l-370.57-213.95c-20.864-12.044-33.717-34.307-33.717-58.398v-427.89c0-24.091 12.853-46.354 33.717-58.402l370.57-213.95z" opacity=".24"/>
<path transform="rotate(27.5 400 400)" d="m369.09-45.769c19.126-11.04 42.689-11.04 61.815 0.0030907l339.69 196.12c19.126 11.04 30.907 31.448 30.907 53.532v392.23c0 22.083-11.782 42.492-30.907 53.535l-339.69 196.12c-19.126 11.04-42.689 11.04-61.815-0.0030907l-339.69-196.12c-19.126-11.04-30.907-31.448-30.907-53.532v-392.23c0-22.083 11.782-42.492 30.907-53.535l339.69-196.12z" opacity=".79"/>
<path transform="rotate(25 400 400)" d="m371.9-5.2443c17.387-10.036 38.809-10.036 56.195 0.0028098l308.8 178.29c17.387 10.036 28.098 28.589 28.098 48.665v356.58c0 20.076-10.711 38.629-28.098 48.668l-308.8 178.29c-17.387 10.036-38.809 10.036-56.195-0.0028098l-308.8-178.29c-17.387-10.036-28.098-28.589-28.098-48.665v-356.58c0-20.076 10.711-38.629 28.098-48.668l308.8-178.29z" opacity=".32"/>
<path transform="rotate(22.5 400 400)" d="m374.71 35.28c15.648-9.0328 34.928-9.0328 50.576 0.0025288l277.92 160.46c15.648 9.0328 25.288 25.73 25.288 43.799v320.92c0 18.068-9.6397 34.766-25.288 43.801l-277.92 160.46c-15.648 9.0328-34.928 9.0328-50.576-0.0025288l-277.92-160.46c-15.648-9.0328-25.288-25.73-25.288-43.799v-320.92c0-18.068 9.6397-34.766 25.288-43.801l277.92-160.46z" opacity=".69"/>
<path transform="rotate(20 400 400)" d="m377.52 75.805c13.909-8.0292 31.047-8.0292 44.956 0.0022478l247.04 142.63c13.909 8.0292 22.478 22.872 22.478 38.932v285.26c0 16.061-8.5687 30.903-22.478 38.934l-247.04 142.63c-13.909 8.0292-31.047 8.0292-44.956-0.0022478l-247.04-142.63c-13.909-8.0292-22.478-22.872-22.478-38.932v-285.26c0-16.061 8.5687-30.903 22.478-38.934l247.04-142.63z" opacity=".44"/>
<path transform="rotate(17.5 400 400)" d="m380.33 116.33c12.171-7.0255 27.166-7.0255 39.337 0.0019668l216.16 124.8c12.171 7.0255 19.668 20.013 19.668 34.066v249.6c0 14.053-7.4976 27.04-19.668 34.068l-216.16 124.8c-12.171 7.0255-27.166 7.0255-39.337-0.0019668l-216.16-124.8c-12.171-7.0255-19.668-20.013-19.668-34.066v-249.6c0-14.053 7.4976-27.04 19.668-34.068l216.16-124.8z" opacity=".16"/>
<path transform="rotate(15 400 400)" d="m383.14 156.85c10.432-6.0219 23.285-6.0219 33.717 0.0016859l185.28 106.97c10.432 6.0219 16.859 17.154 16.859 29.199v213.95c0 12.045-6.4265 23.177-16.859 29.201l-185.28 106.97c-10.432 6.0219-23.285 6.0219-33.717-0.0016859l-185.28-106.97c-10.432-6.0219-16.859-17.154-16.859-29.199v-213.95c0-12.045 6.4265-23.177 16.859-29.201l185.28-106.97z" opacity=".65"/>
<path transform="rotate(12.5 400 400)" d="m385.95 197.38c8.6934-5.0182 19.404-5.0182 28.098 0.0014049l154.4 89.144c8.6934 5.0182 14.049 14.295 14.049 24.333v178.29c0 10.038-5.3554 19.314-14.049 24.334l-154.4 89.144c-8.6934 5.0182-19.404 5.0182-28.098-0.0014049l-154.4-89.144c-8.6934-5.0182-14.049-14.295-14.049-24.333v-178.29c0-10.038 5.3554-19.314 14.049-24.334l154.4-89.144z" opacity=".61"/>
<path transform="rotate(10 400 400)" d="m388.76 237.9c6.9547-4.0146 15.523-4.0146 22.478 0.0011239l123.52 71.315c6.9547 4.0146 11.239 11.436 11.239 19.466v142.63c0 8.0303-4.2843 15.451-11.239 19.467l-123.52 71.315c-6.9547 4.0146-15.523 4.0146-22.478-0.0011239l-123.52-71.315c-6.9547-4.0146-11.239-11.436-11.239-19.466v-142.63c0-8.0303 4.2843-15.451 11.239-19.467l123.52-71.315z" opacity=".52"/>
<path transform="rotate(7.5 400 400)" d="m391.57 278.43c5.2161-3.0109 11.643-3.0109 16.859 8.4293e-4l92.641 53.486c5.2161 3.0109 8.4293 8.5768 8.4293 14.6v106.97c0 6.0227-3.2132 11.589-8.4293 14.6l-92.641 53.486c-5.2161 3.0109-11.643 3.0109-16.859-8.4293e-4l-92.641-53.486c-5.2161-3.0109-8.4293-8.5768-8.4293-14.6v-106.97c0-6.0227 3.2132-11.589 8.4293-14.6l92.641-53.486z" opacity=".43"/>
<path transform="rotate(5 400 400)" d="m394.38 318.95c3.4774-2.0073 7.7617-2.0073 11.239 5.6195e-4l61.761 35.658c3.4774 2.0073 5.6195 5.7179 5.6195 9.733v71.315c0 4.0152-2.1422 7.7257-5.6195 9.7336l-61.761 35.658c-3.4774 2.0073-7.7617 2.0073-11.239-5.6195e-4l-61.761-35.658c-3.4774-2.0073-5.6195-5.7179-5.6195-9.733v-71.315c0-4.0152 2.1422-7.7257 5.6195-9.7336l61.761-35.658z" opacity=".29"/>
<path transform="rotate(2.5 400 400)" d="m397.19 359.48c1.7387-1.0036 3.8809-1.0036 5.6195 2.8098e-4l30.88 17.829c1.7387 1.0036 2.8098 2.8589 2.8098 4.8665v35.658c0 2.0076-1.0711 3.8629-2.8098 4.8668l-30.88 17.829c-1.7387 1.0036-3.8809 1.0036-5.6195-2.8098e-4l-30.88-17.829c-1.7387-1.0036-2.8098-2.8589-2.8098-4.8665v-35.658c0-2.0076 1.0711-3.8629 2.8098-4.8668l30.88-17.829z" opacity=".65"/>
</g>
</svg>
