<svg xmlns="http://www.w3.org/2000/svg" viewBox="0 0 447.65 409.5"><defs><style>.a,.b,.e{fill:#fff;}.a,.d,.e,.f{isolation:isolate;}.a{opacity:0.29;}.c{fill:#a8a8a8;}.c,.k,.m{stroke:#657078;stroke-miterlimit:10;}.c,.k{stroke-width:5px;}.d{opacity:0.1;}.e{opacity:0.35;}.f{opacity:0.36;}.g{fill:#d6d6d4;}.h{fill:#38016b;}.i{fill:#657078;}.j{fill:red;}.k,.m{fill:none;}.l{fill:#fefdfe;}.m{stroke-width:3px;}</style></defs><path class="a" d="M138.23,204.4c2.3-1.5,6,.1,8.2,3.5s2.2,7.4-.1,8.9"/><path class="b" d="M301.83,184.2c-1.2-9.9-7.5-17.2-14.1-16.4-2.9.4-5.4,2.3-7.2,5.2-2.2,3.6-3.2,8.7-2.5,14.1h0c1.2,9.9,7.5,17.2,14.1,16.4"/><path class="a" d="M309.83,216.9c-2.3-1.5-2.3-5.5-.1-8.9s5.9-5,8.2-3.5"/><path class="c" d="M434,273.6a108.2,108.2,0,0,1-6.2,21,106.89,106.89,0,0,1-7,14.4c-12.7,22.2-30.3,35.7-42,44.6-4.8,3.6-9.6,6.9-14.5,10-22.4,13.9-46.3,22.4-69.8,27.3h0c-4.9,1-9.7,1.8-14.5,2.5-.4.1-.8.1-1.1.2h0c-.2,0-.4.1-.6.1a.87.87,0,0,0-.5.1c-5.9.8-11.8,1.4-17.6,1.8a305.92,305.92,0,0,1-35.7.5h-.2a309.36,309.36,0,0,1-35.9-.5c-5.8-.4-11.6-1-17.5-1.8h-.3c-.6-.1-1.2-.2-1.9-.3-3.3-.5-6.7-1-10-1.7h-.1c-2.6-.5-5.2-1-7.8-1.6h0A229.31,229.31,0,0,1,112,377.9a198.78,198.78,0,0,1-42.1-24.2c-4.7-3.5-10.3-7.8-16.2-13.1a139.32,139.32,0,0,1-12.1-12.2c-1.7-1.9-3.3-3.9-4.9-6-.8-1-1.5-2-2.3-3a112.2,112.2,0,0,1-12.5-22.1c-.4-.8-.7-1.7-1.1-2.6-.3-.6-.5-1.3-.8-2-7.4-19.6-8.6-38.9-6.9-56.2.3-2.8.6-5.5,1-8.2a168.35,168.35,0,0,1,3.6-17.2,271.33,271.33,0,0,1,10.1-30.4c.4-1.1.9-2.3,1.3-3.4.1-.3.3-.7.4-1a200.7,200.7,0,0,1,23.4-42.2c.4-.6.9-1.2,1.3-1.8a217,217,0,0,1,31.4-34.4c1.2-1,2.3-2,3.4-3,1.5-1.3,3-2.6,4.5-3.7,3-2.4,5.8-4.5,8.2-6.4l-.2-.2c-2.1-2.7-22.9-29-38.8-44.2-4.6-4.4-8.8-7.9-12-9.6l-14.9-8h-.1a2.9,2.9,0,0,1,.5-.6h0a.1.1,0,0,1,.1-.1h0a27.12,27.12,0,0,1,5.4-5.3l.2-.2a24.71,24.71,0,0,1,7.2-3.7l.3-.1a24.87,24.87,0,0,1,14.3,0c1.4.4,2.9.9,4.6,1.5h0c14,5.1,35.6,17.2,48.4,25h0c5,3.1,8.7,5.4,10,6.5,5,4,18,18,18,18s38.5-21.7,71.4-20h.6c2.4.2,4.9.4,7.5.7h.1c1.8-.2,3.6-.4,5.4-.5h0a14.77,14.77,0,0,1,2.1-.1c32.6-1.1,71.9,20.2,72,20,0,0,13-14,18-18,1.6-1.3,6.7-4.5,13.5-8.6h.1c12.8-7.6,31.7-18,44.4-22.7h0a46.86,46.86,0,0,1,5-1.6c6.5-1.8,14.2-2.1,17.8-.7,10.3,4.1,10.4,9.4,10.3,10.5V23h-.2c-.8-.1-4.1-.1-14.8,8a68.63,68.63,0,0,0-6.6,5.8v.1c-14.5,14-39.6,42.6-43.7,47.4-.4.5-.6.7-.6.7,18.4,13.5,52.8,43.1,72.7,92.6A34,34,0,0,1,421,181c4.1,10.8,10.2,26.7,13.3,45.4A133.66,133.66,0,0,1,434,273.6Z"/><path class="c" d="M426.13,110.9c-.1,4.3-.9,13.4-2.4,31.7-1.2,13.8-2.2,25.1-2.9,32.9-19.8-49.5-54.3-79.1-72.7-92.6,0,0,36-44.5,51-52.5,2.5-1.4,10.5-7.9,12.6-7.4,9.2,2,8.7,24.9,10.3,35C424.13,71.6,426.73,88.9,426.13,110.9Z"/><path class="c" d="M37,20.9a93.83,93.83,0,0,1,15,8,79.19,79.19,0,0,1,12,9.6c16.8,16,39,44.4,39,44.4-2.5,1.8-5.2,4-8.2,6.4-1.4,1.2-2.9,2.4-4.5,3.7-1.1.9-2.2,1.9-3.4,3-18.4,16.3-41.6,42.3-56.5,79.6C20.43,149.1,5,95.1,27.13,41A132.93,132.93,0,0,1,37,20.9Z"/><path class="d" d="M25.83,284.1c-1.7,2.4-3.3,4.8-4.8,7.3-10-32.9-6.8-62.8-6.1-62.9C15.43,228.4,12.33,256,25.83,284.1Z"/><path class="d" d="M421.63,308.2c-12.7,22.2-30.3,35.7-42,44.6-4.8,3.6-9.6,6.9-14.5,10-6,2.7-12.3,5.3-18.8,7.9a323.64,323.64,0,0,1-88.6,21.9c-5.1.5-10,.9-14.8,1.2h-.2a338.87,338.87,0,0,1-56.8-1.2h-.5a279.87,279.87,0,0,1-31.4-5c-13.5-3.1-27.6-6.3-41.4-10.5a198.78,198.78,0,0,1-42.1-24.2c-4.7-3.5-10.3-7.8-16.2-13.1a139.32,139.32,0,0,1-12.1-12.2c-1.7-1.9-3.3-3.9-4.9-6,2.3-3.4,5-6.8,7.8-10.2,45.4,45.7,131,51.7,165.9,54.2,74.5,5.2,121.6-14.1,131.2-18.2,19.9-8.5,49.3-21.4,69.7-49.3A114.17,114.17,0,0,1,421.63,308.2Z"/><path class="d" d="M435.53,273.6c-.2-.3-.5-.5-.7-.8-2.1-2.4-4.3-4.8-6.5-7.1,6.7-20.8,5.9-37.8,6.6-40.7.1-.3.1-.5.2-.4C436.43,224.7,440.23,246.6,435.53,273.6Z"/><path class="e" d="M36.43,28.5a76.44,76.44,0,0,1,11.7,9.6C57.53,47.2,61.23,55,65,60.5c5.1,7.3,14.7,16.2,34.1,22.1h.5c-4.3-5.3-8.7-10.7-13.4-16.2C79.83,59,74,51.91,67.23,45.3c-2.6-2.6-4.8-4.8-6.7-6.4a57.93,57.93,0,0,0-8.2-6.7c-1.4-.9-1.36-1.64-7.36-4.84L38,24l-2.33,4.32Z"/><path class="e" d="M414.53,28.5c-29.15,19.16-24.13,43.74-62.8,53.9,11.4-13.71,19.78-23.35,30.66-34.4,6-5.56,4.74-4.66,10.38-10,0,0,4-3.57,18.69-12.63C411.57,25.3,411.85,25.11,414.53,28.5Z"/><path class="e" d="M383.13,16,374,19.62l-7.58,3.67-10.52,5.48s-10.22,5.62-10.32,5.62c-.5.4-9.78,5.72-10.42,6C318.81,48,305.13,67.16,304,66.57c-8.06-4-10.31-4.67-17.31-7.73C273.57,53.12,249.9,45.68,231,46.32l-6.65.85L220,46.32H206.8l-13.3,2C155,57.52,145,67.55,144.2,66.76c-8-8.12-11.55-12.48-18.45-18.48l-12.62-8.47c-6.9-3.63-13.79-7.81-20.68-11.44-5.55-2.93-11.1-5.3-16.64-8.22L67.1,16.34C58.59,13.45,54,14,53.76,14.43c-.6.9,32.81,35.67,88.31,55.07,3.9,1.4,76.7,26,153.2,2.7,5.1-1.5,9.1-2.9,11.9-3.9,53.3-18.8,89.16-52.14,89.16-54.39a66.76,66.76,0,0,0-7.06.59Z"/><path class="f" d="M205.33,115.7c-5.5-1.2-8.6-6.9-10.9-12-1.1-2.4-2.1-5.5-.4-7.5,2-2.2,5.6-1.1,8.2.3,4.5,2.4,9.2,6,9.3,11.1a8.13,8.13,0,0,1-7.9,7.9"/><path class="f" d="M199.93,81.9c-1.1-1.4-2-3.1-1.7-4.8a5.09,5.09,0,0,1,2.1-3.1,6.69,6.69,0,0,1,3.2-1.7,5.3,5.3,0,0,1,6,4.43,5.51,5.51,0,0,1,.06.57c0,1.5-1.2,9-2.3,9.6C205.23,88.1,201.13,83.4,199.93,81.9Z"/><path class="f" d="M172.73,77.1c.9-.6,2.2-1,3-.3a4.11,4.11,0,0,1,.7,1.1c1,2.3,1.9,5,.7,7.2a6.76,6.76,0,0,1-2.8,2.5C164.53,92.9,167,80.6,172.73,77.1Z"/><path class="f" d="M182.93,65.2a5.93,5.93,0,0,1,1.6-5.4,10.71,10.71,0,0,1,3.4-1.6,3.35,3.35,0,0,1,2-.2,2.38,2.38,0,0,1,1.3.9c2.7,2.9,3.9,9.3.5,12.3C188.13,74.4,183.53,68.6,182.93,65.2Z"/><path class="f" d="M247.23,115.9c5.5-1.2,8.6-6.9,10.9-12,1.1-2.4,2.1-5.5.4-7.5-2-2.2-5.6-1.1-8.2.3-4.5,2.4-9.2,6-9.3,11.1a8.13,8.13,0,0,0,7.9,7.9"/><path class="f" d="M252.63,82.2c1.1-1.4,2-3.1,1.7-4.8a5.09,5.09,0,0,0-2.1-3.1,6.69,6.69,0,0,0-3.2-1.7A5.3,5.3,0,0,0,243,77a5.51,5.51,0,0,0-.06.57c0,1.5,1.2,9,2.3,9.6C247.33,88.3,251.43,83.6,252.63,82.2Z"/><path class="f" d="M279.83,77.4c-.9-.6-2.2-1-3-.3a4.11,4.11,0,0,0-.7,1.1c-1,2.3-1.9,5-.7,7.2a6.76,6.76,0,0,0,2.8,2.5C288,93.2,285.53,80.8,279.83,77.4Z"/><path class="f" d="M269.63,65.4A5.93,5.93,0,0,0,268,60a10.71,10.71,0,0,0-3.4-1.6,3.35,3.35,0,0,0-2-.2,2.38,2.38,0,0,0-1.3.9c-2.7,2.9-3.9,9.3-.5,12.3C264.43,74.7,269,68.9,269.63,65.4Z"/><path class="f" d="M235.13,130.6a16,16,0,0,1,6.4,1.6,7.3,7.3,0,0,1,3.8,5.1,7,7,0,0,1-2.6,5.9c-3.5,3.2-8.7,3.6-13.4,3.6a42.19,42.19,0,0,1-11.8-1c-6.4-1.7-12.6-7-4.4-11.4C219.53,131,227.93,130,235.13,130.6Z"/><path class="f" d="M219.33,96.3c-.3-3.1-.1-6.5,2.1-8.7,1.4-1.5,3.5-2.1,5.5-2.5,1.3-.2,2.7-.4,3.8.3a4.71,4.71,0,0,1,1.6,1.8c2.5,4,2.3,9.2.6,13.6-1.2,3.3-4.8,11.4-8.6,9.2C221.23,108,219.73,99.6,219.33,96.3Z"/><ellipse class="g" cx="155.63" cy="191.1" rx="36.9" ry="50.7"/><ellipse class="g" cx="303.43" cy="192" rx="36.9" ry="50.7"/><path class="g" d="M136.43,226.6c-1.4,1.7-3.2,3.6-5.3,5.7-18.5,18.3-60.9,48.8-86,78.9A104,104,0,0,1,28,288.5c-.8-1.5-1.6-3-2.3-4.4,18.9-22.8,45.7-48,82.7-66.5,5.7-2.9,11.4-5.4,16.9-7.7a28.05,28.05,0,0,0,3.9,9.1A29.74,29.74,0,0,0,136.43,226.6Z"/><ellipse class="h" cx="156.23" cy="192" rx="28.1" ry="43.8"/><path class="b" d="M179.53,188.8c-1.2,9.9-7.5,17.2-14.1,16.4s-10.9-9.4-9.7-19.3,7.5-17.2,14.1-16.4c2.9.4,5.4,2.3,7.2,5.2A22.43,22.43,0,0,1,179.53,188.8Z"/><ellipse class="a" cx="143.71" cy="212.2" rx="5" ry="7.4" transform="translate(-92.81 113.49) rotate(-33.24)"/><ellipse class="h" cx="302.83" cy="192" rx="28.1" ry="43.8"/><path class="b" d="M279.43,188.8c1.2,9.9,7.5,17.2,14.1,16.4s10.9-9.4,9.7-19.3-7.5-17.2-14.1-16.4c-2.9.4-5.4,2.3-7.2,5.2C279.83,178.2,278.83,183.3,279.43,188.8Z"/><ellipse class="a" cx="315.32" cy="212.3" rx="7.4" ry="4.9" transform="translate(-35.08 359.66) rotate(-56.76)"/><path class="i" d="M201.63,298.9a9.64,9.64,0,0,1-2.4,0,6.64,6.64,0,0,1-2.1-.5,9.4,9.4,0,0,1-3.7-2c-1-1-1.8-2.5-2.8-3.4a10.9,10.9,0,0,0-3.7-2,17.14,17.14,0,0,1-2.1-.8,11.59,11.59,0,0,1-1.9-1.1,16.84,16.84,0,0,1-3.4-2.6,15,15,0,0,1-4.2-7.7l.4-.3a21.11,21.11,0,0,1,4,1.8c1.17.71,2.31,1.48,3.4,2.3a25.58,25.58,0,0,1,2.8,2.9c.5.5.9,1,1.4,1.5a11.27,11.27,0,0,1,1.2,1.8,7.13,7.13,0,0,0,1.3,1.6,5.2,5.2,0,0,0,1.7,1.2c1.2.6,2.8.7,4.1,1.2a6.08,6.08,0,0,1,1.8.9c.6.4,1.1.8,1.6,1.2a13.67,13.67,0,0,1,2.8,3.4l-.2.6Z"/><path class="i" d="M259,298.5a12.24,12.24,0,0,1,2.8-3.4,5.89,5.89,0,0,1,1.6-1.2,5.08,5.08,0,0,1,1.8-.9c1.3-.4,2.9-.5,4.1-1.2a6.54,6.54,0,0,0,1.7-1.2,18.15,18.15,0,0,0,1.3-1.6l1.2-1.8a19.87,19.87,0,0,1,1.4-1.5,38.33,38.33,0,0,1,2.8-2.9,27.78,27.78,0,0,1,3.4-2.3,21.11,21.11,0,0,1,4-1.8l.4.3a15,15,0,0,1-4.2,7.7,21.41,21.41,0,0,1-3.4,2.6,11.59,11.59,0,0,1-1.9,1.1,17.14,17.14,0,0,1-2.1.8,10.9,10.9,0,0,0-3.7,2c-1.1.9-1.8,2.4-2.8,3.4a8.91,8.91,0,0,1-3.7,2,16.87,16.87,0,0,1-2.1.5,9.64,9.64,0,0,1-2.4,0l-.2-.6Z"/><path class="h" d="M274.93,290.1a61.91,61.91,0,0,1-12.3,28.4,82.41,82.41,0,0,1-6.1,7.1c-6.1,6.3-15.6,13.5-27.2,12.9-11.4-.7-19.5-8.6-25.8-15.8l-2.2-2.5a71.43,71.43,0,0,1-15.4-30.1l1.1-.5a41,41,0,0,0,7,2.7,36.78,36.78,0,0,0,9.1,1.2h.2c16-.1,25.6-10.8,27-12.4,1.4,1.6,11.3,12.5,27.5,12.4a32.71,32.71,0,0,0,10.2-1.6h0a44.57,44.57,0,0,0,5.8-2.3l1.1.5Z"/><path class="j" d="M256.53,325.6c-6.1,6.3-15.6,13.5-27.2,12.9-11.4-.7-19.5-8.6-25.8-15.8a38.63,38.63,0,0,1,14.1-7.1C237.23,310.5,254,323.6,256.53,325.6Z"/><path class="b" d="M203.33,293.7l-4.9,8.6-4.6-9.8.2-.3a36.78,36.78,0,0,0,9.1,1.2Z"/><path class="b" d="M268.13,291.9c-1.7,3.4-3.4,6.8-5,10.1-1.7-2.9-3.4-5.7-5.2-8.6A35.23,35.23,0,0,0,268.13,291.9Z"/><path class="k" d="M274.93,290.1a61.91,61.91,0,0,1-12.3,28.4,82.41,82.41,0,0,1-6.1,7.1c-6.1,6.3-15.6,13.5-27.2,12.9-11.4-.7-19.5-8.6-25.8-15.8l-2.2-2.5a71.43,71.43,0,0,1-15.4-30.1l1.1-.5a35.66,35.66,0,0,0,16.3,3.9c16-.1,25.6-10.8,27-12.4,1.4,1.6,11.3,12.5,27.5,12.4a35.91,35.91,0,0,0,16-3.9Z"/><line class="k" x1="230.43" y1="281" x2="230.43" y2="263.5"/><path class="h" d="M248.43,234.7c-1.4-1.2-4-2.9-18-3-16.1-.1-18.9,2.1-20,3a15.15,15.15,0,0,0-5,11c.1,6.9,5.6,11.3,9,14a26.75,26.75,0,0,0,15,6c2.6.2,10.5.7,17-5,1.6-1.4,8-7.4,7-16A15.55,15.55,0,0,0,248.43,234.7Z"/><path class="l" d="M243.43,240.7c-.5-2-6.2-2-13-2s-12.5,0-13,2c-.3,1.2,1.6,2.7,2,3,2.6,2,4.9.9,12,1,5.6.1,7.7.7,10-1C241.83,243.5,243.83,242,243.43,240.7Z"/><path class="g" d="M155.13,244.7c-2.8,4-17.2,13.9-19.3,13.3-7.8-1.9-8.2-12.9-23.5-5.7a17.2,17.2,0,0,0-1.9,1c-.4-1.5-5.9,3.9-5.9,2.3,0-10.2,14.3-25.6,25.9-26.6a40.56,40.56,0,0,0,12.5,11c4.3,2.4,8.6.4,11.5,2.3A22.66,22.66,0,0,1,155.13,244.7Z"/><path class="m" d="M36.63,322.2c18.5-21.8,53.1-58,73.7-68.9.7-.4,1.3-.7,1.9-1,15.4-7.3,15.8,3.7,23.5,5.7,2.1.5,16.5-9.4,19.3-13.3.5-.6.6-1.1.4-1.4a5,5,0,0,0-1.1-1c-2.9-1.9-7.2.1-11.5-2.3a40.56,40.56,0,0,1-12.5-11,59,59,0,0,1-9.2-18.5,67.08,67.08,0,0,1-2.2-9.6,59.49,59.49,0,0,1-.4-15.6"/><path class="m" d="M18.93,289.7c13-13.3,27-29,41.9-41,18.8-15,40-27.2,60.3-38.2"/><path class="g" d="M322.73,226.6c1.4,1.7,3.2,3.6,5.3,5.7,18.5,18.3,58.9,35.4,84,65.6,6.6-6.7,7-11.4,11.6-19.9.8-1.5,4-10.8,4.7-12.3-18.9-22.8-40.7-29.7-77.6-48.1-5.7-2.9-11.4-5.4-16.9-7.7a28.05,28.05,0,0,1-3.9,9.1A29.74,29.74,0,0,1,322.73,226.6Z"/><path class="g" d="M302.83,244.5c2.8,4,17.2,13.9,19.3,13.3,7.8-1.9,10.9-17.4,26.2-10.1.6.3,3.5,1.9,4.2,2.2.4-1.5,7.4,4.4,7.4,2.8,0-10.2-20.8-23-32.4-24a40.56,40.56,0,0,1-12.5,11c-4.3,2.4-8.6.4-11.5,2.3A18.19,18.19,0,0,0,302.83,244.5Z"/><path class="m" d="M420.93,309c-25.3-29.9-46.1-44.5-69-56.6-.7-.3-5.2-3.8-5.9-4.1-15.4-7.3-15,8.3-22.8,10.2-2.1.5-16.5-9.4-19.3-13.3-.4-.6-.6-1.1-.4-1.4a4,4,0,0,1,1.2-1c2.9-1.9,7.2.1,11.5-2.3a40.56,40.56,0,0,0,12.5-11,60,60,0,0,0,9.5-19.5,64.68,64.68,0,0,0,1.9-8.6,59.07,59.07,0,0,0,.4-15.6"/><path class="m" d="M434.83,269.4c-9.4-8.6-19.3-17.1-29.2-24.8-19.8-15.3-46.2-23.1-67.3-34.7h0"/></svg>