<?xml version="1.0" encoding="utf-8"?>
<!-- Generator: Adobe Illustrator 26.0.1, SVG Export Plug-In . SVG Version: 6.00 Build 0)  -->
<svg version="1.1" baseProfile="tiny" id="Слой_1"
	 xmlns="http://www.w3.org/2000/svg" xmlns:xlink="http://www.w3.org/1999/xlink" x="0px" y="0px" viewBox="0 0 409.6 409.6"
	 overflow="visible" xml:space="preserve">
<g>
	<path fill="#FECB33" d="M404,3.8c4,3.4,5.2,7.6,4.2,12.8c-13.2,69.1-26.3,138.2-39.5,207.2c-10.5,55-21.1,110-31.6,165
		c-0.4,2.1-0.8,4.2-1.1,6.3c-0.7,6.4-3.3,11.6-9.5,14.4c-2.4,0-4.8,0-7.2,0c-0.3-0.4-0.6-0.9-1-1.2c-33.8-20.8-67.6-41.5-101.4-62.2
		c-12.7-7.8-25.4-15.4-38.1-23.1c10.6-15.2,21.2-30.4,31.9-45.5c17.8-25.2,35.7-50.4,53.5-75.5c11.7-16.5,23.3-33.1,35-49.7
		c17.8-25.2,35.7-50.4,53.5-75.5c11.4-16.1,23-32.1,34.2-48.3c4.6-6.7,10.1-12.9,13.7-20.4c0,0,0,0,0,0c0.3-0.3,0.5-0.5,0.8-0.8
		c0,0,0,0,0,0c0.7-0.3,0.8-1,0.8-1.6C402.9,5,403.5,4.4,404,3.8z"/>
	<path fill="#FDDA41" d="M404,3.8c-0.6,0.6-1.1,1.2-1.7,1.9c-0.6,0.4-0.8,0.9-0.8,1.6c0,0,0,0,0,0c-0.3,0.3-0.5,0.5-0.8,0.8
		c0,0,0,0,0,0c-1-0.1-1.7,0.6-2.4,1.2c-7.6,6.6-15.3,13.1-22.9,19.7c-8.9,7.7-17.7,15.6-26.6,23.3c-11.3,9.8-22.7,19.5-34,29.4
		c-8.9,7.7-17.7,15.6-26.6,23.3c-11.4,9.9-22.9,19.7-34.3,29.6c-8.5,7.4-17,14.8-25.5,22.2c-11.7,10.2-23.4,20.3-35.2,30.5
		c-8.6,7.5-17.2,15-25.8,22.4c-13,11.3-26.1,22.5-39.1,33.8c-10.8,9.3-21.7,18.7-32.5,28.1c-0.6-0.3-1.2-0.6-1.8-0.9
		c-28.4-17.5-56.9-35-85.4-52.4c-3.7-2.3-6.7-5-8.6-8.9c0-2.4,0-4.8,0-7.2c3.4-5.4,9-7.9,14.4-10.7c65.1-32.6,130.2-65.3,195.3-97.9
		c60-30.1,119.9-60.2,179.9-90.3C394.7,0.6,399.4-0.3,404,3.8z"/>
	<path fill="#FD9923" d="M95.8,271.5c10.8-9.4,21.7-18.7,32.5-28.1c13-11.3,26.1-22.5,39.1-33.8c8.6-7.5,17.2-15,25.8-22.4
		c11.7-10.2,23.4-20.3,35.2-30.5c8.5-7.4,17-14.8,25.5-22.2c11.4-9.9,22.9-19.7,34.3-29.6c8.9-7.7,17.7-15.6,26.6-23.3
		c11.3-9.8,22.7-19.5,34-29.4c8.9-7.7,17.7-15.6,26.6-23.3c7.6-6.6,15.3-13.2,22.9-19.7c0.7-0.6,1.4-1.3,2.4-1.2
		c-3.6,7.4-9.1,13.6-13.7,20.4c-11.2,16.2-22.8,32.2-34.2,48.3c-17.8,25.2-35.7,50.3-53.5,75.5c-11.7,16.5-23.3,33.1-35,49.7
		c-17.8,25.2-35.7,50.3-53.5,75.5c-10.7,15.1-21.3,30.3-31.9,45.5c-19.4,25.8-38.8,51.6-58.2,77.4c-2.7,3.6-5.5,7.1-9.7,9.1
		c-1.9,0-3.7,0-5.6,0c-7.3-2.6-9.7-7.9-9.7-15.4C95.9,353.2,95.8,312.3,95.8,271.5z"/>
	<path fill="#FD9923" d="M401.5,7.3c0-0.7,0.2-1.3,0.8-1.6C402.3,6.3,402.2,6.9,401.5,7.3z"/>
	<path fill="#FD9923" d="M400.7,8.1c0.3-0.3,0.5-0.5,0.8-0.8C401.3,7.5,401,7.8,400.7,8.1z"/>
</g>
</svg>
