<?xml version="1.0" encoding="UTF-8"?>
<svg version="1.1" viewBox="0 0 1422 800" xmlns="http://www.w3.org/2000/svg">
<defs>
<linearGradient id="a" x1="50%" x2="50%" y2="100%">
<stop stop-color="hsl(206, 75%, 49%)" style="--darkreader-inline-stopcolor:#196eaf" data-darkreader-inline-stopcolor="" offset="0"/>
<stop stop-color="hsl(331, 90%, 56%)" style="--darkreader-inline-stopcolor:#b00959" data-darkreader-inline-stopcolor="" offset="1"/>
</linearGradient>
</defs>
<g fill="none" stroke="url(#a)" stroke-linecap="round" stroke-width="2">
<path d="m0 572q355.5-672 711-172t711 172" opacity=".62"/>
<path d="m0 550q355.5-650 711-150t711 150" opacity=".29"/>
<path d="m0 528q355.5-628 711-128t711 128" opacity=".9"/>
<path d="m0 506q355.5-606 711-106t711 106" opacity=".65"/>
<path d="m0 484q355.5-584 711-84t711 84" opacity=".57"/>
<path d="m0 462q355.5-562 711-62t711 62" opacity=".71"/>
<path d="m0 440q355.5-540 711-40t711 40" opacity=".84"/>
<path d="m0 418q355.5-518 711-18t711 18" opacity=".12"/>
<path d="m0 396q355.5-496 711 4t711-4" opacity=".57"/>
<path d="m0 374q355.5-474 711 26t711-26" opacity=".11"/>
<path d="m0 352q355.5-452 711 48t711-48" opacity=".41"/>
<path d="m0 330q355.5-430 711 70t711-70"/>
<path d="m0 308q355.5-408 711 92t711-92" opacity=".8"/>
<path d="m0 286q355.5-386 711 114t711-114" opacity=".95"/>
<path d="m0 264q355.5-364 711 136t711-136" opacity=".11"/>
<path d="m0 242q355.5-342 711 158t711-158" opacity=".5"/>
<path d="m0 220q355.5-320 711 180t711-180" opacity=".83"/>
<path d="m0 198q355.5-298 711 202t711-202" opacity=".49"/>
<path d="m0 176q355.5-276 711 224t711-224" opacity=".82"/>
<path d="m0 154q355.5-254 711 246t711-246" opacity=".93"/>
<path d="m0 132q355.5-232 711 268t711-268" opacity=".57"/>
<path d="m0 110q355.5-210 711 290t711-290" opacity=".82"/>
<path d="m0 88q355.5-188 711 312t711-312" opacity=".68"/>
<path d="m0 66q355.5-166 711 334t711-334" opacity=".97"/>
<path d="m0 44q355.5-144 711 356t711-356" opacity=".89"/>
</g>
</svg>
