<?xml version="1.0" standalone="no"?>
<!DOCTYPE svg PUBLIC "-//W3C//DTD SVG 20010904//EN"
 "http://www.w3.org/TR/2001/REC-SVG-20010904/DTD/svg10.dtd">
<svg version="1.0" xmlns="http://www.w3.org/2000/svg"
 width="896.000000pt" height="896.000000pt" viewBox="0 0 896.000000 896.000000"
 preserveAspectRatio="xMidYMid meet">
<metadata>
Created by potrace 1.14, written by Peter Selinger 2001-2017
</metadata>
<g transform="translate(0.000000,896.000000) scale(0.100000,-0.100000)"
fill="#000000" stroke="none">
<path d="M7825 8389 c-203 -24 -536 -171 -1010 -444 -358 -206 -393 -232 -578
-418 l-168 -169 -135 62 c-331 150 -643 250 -939 301 -120 20 -163 22 -545 22
-406 0 -418 0 -545 -26 -203 -40 -384 -93 -587 -171 -98 -37 -305 -130 -361
-161 l-47 -27 -173 174 c-166 167 -178 177 -337 274 -463 286 -953 528 -1152
570 -133 29 -284 4 -393 -64 -131 -83 -174 -138 -273 -350 -390 -840 -413
-1736 -70 -2759 l41 -122 -71 -188 c-200 -537 -275 -893 -275 -1318 -1 -233
15 -378 63 -580 149 -627 509 -1112 1185 -1594 650 -464 1461 -735 2365 -791
213 -13 1128 -13 1335 0 905 57 1698 320 2347 776 570 401 915 804 1111 1299
159 399 204 905 123 1371 -45 259 -98 449 -210 763 l-65 180 9 93 c11 109 42
457 70 788 34 399 40 580 30 817 -10 210 -36 465 -65 643 -8 47 -19 137 -25
200 -32 337 -62 469 -129 556 -21 28 -44 67 -50 87 -34 102 -190 202 -331 210
-41 3 -106 1 -145 -4z m-6593 -104 c97 -20 242 -81 487 -205 267 -135 505
-269 682 -385 119 -78 153 -107 311 -268 l177 -180 128 66 c289 148 685 280
973 323 128 19 221 21 645 13 246 -5 307 -9 400 -28 288 -58 567 -151 893
-298 108 -49 127 -55 144 -44 13 8 24 9 30 3 6 -6 74 56 181 162 194 194 232
222 537 396 452 258 778 411 949 446 120 24 249 16 317 -18 51 -27 114 -79
114 -95 0 -4 -26 -21 -57 -38 -77 -40 -250 -162 -348 -245 -189 -160 -714
-735 -897 -982 l-28 -36 73 -54 c257 -190 592 -512 793 -763 333 -417 551
-825 743 -1389 90 -264 150 -504 182 -736 15 -106 19 -511 6 -603 l-9 -58 -61
54 c-541 471 -688 566 -1322 847 -126 57 -283 129 -349 162 l-118 59 6 32 c26
129 36 216 36 319 l0 119 -27 -3 -28 -3 -1 -120 c-3 -205 -47 -392 -135 -566
-57 -115 -115 -194 -202 -275 -103 -96 -152 -121 -263 -132 -106 -11 -144 -30
-144 -73 0 -47 109 -143 287 -255 134 -84 176 -74 281 64 64 83 94 109 141
118 45 9 132 -21 213 -75 40 -26 127 -78 193 -115 172 -97 409 -257 562 -380
161 -129 388 -347 535 -514 l109 -123 -22 -37 c-178 -295 -420 -546 -804 -834
-571 -428 -1200 -678 -1986 -792 -276 -40 -445 -49 -909 -51 -688 -3 -1010 13
-1340 66 -652 104 -1273 352 -1791 715 -254 179 -541 431 -675 595 l-56 69 19
24 c88 114 433 484 636 682 528 516 887 754 1040 691 19 -9 55 -33 79 -55 104
-95 153 -110 231 -71 134 68 347 243 347 285 0 43 -42 66 -140 75 -69 6 -103
15 -140 35 -180 98 -333 314 -415 585 -32 106 -59 304 -53 394 5 76 1 85 -39
85 -24 0 -12 -295 15 -405 12 -44 18 -83 14 -87 -4 -3 -81 -48 -172 -98 -453
-253 -808 -488 -1085 -718 -49 -41 -230 -216 -402 -389 -171 -172 -314 -310
-316 -306 -10 17 -47 164 -66 264 -67 352 -50 755 50 1159 48 195 156 526 204
625 19 39 62 135 95 213 154 364 358 696 619 1007 167 200 445 466 651 625 52
40 112 91 133 112 l38 39 -53 67 c-99 126 -343 417 -460 549 -297 333 -468
480 -701 603 l-88 47 33 25 c48 37 95 59 163 79 74 22 121 23 207 4z m-365
-234 c240 -128 437 -306 790 -716 148 -171 333 -397 332 -405 0 -3 -57 -50
-126 -105 -151 -120 -439 -397 -571 -550 -247 -287 -463 -615 -618 -940 -72
-150 -60 -155 -120 43 -73 240 -127 491 -161 742 -26 191 -26 711 0 885 50
338 136 621 284 935 57 122 79 160 91 160 4 0 49 -22 99 -49z m7405 -8 c51
-55 83 -190 108 -458 6 -66 22 -195 35 -286 59 -403 78 -795 56 -1089 -24
-310 -71 -866 -77 -899 -5 -33 -10 -26 -93 135 -223 432 -519 822 -890 1169
-100 94 -292 256 -352 299 -22 15 -22 15 37 87 101 124 335 389 446 505 230
241 339 337 513 453 91 61 171 111 178 111 7 0 25 -12 39 -27z m-1321 -3787
c85 -40 246 -115 359 -166 341 -153 541 -257 695 -360 127 -85 422 -328 574
-472 l73 -70 -17 -92 c-22 -116 -75 -291 -121 -403 -49 -118 -103 -225 -112
-221 -4 2 -49 48 -99 103 -350 383 -693 662 -1103 895 -80 45 -167 98 -195
118 -114 82 -231 104 -316 59 -29 -16 -66 -52 -110 -108 -36 -46 -77 -90 -91
-98 -24 -14 -30 -12 -101 28 -85 49 -265 185 -274 207 -9 23 1 27 95 34 99 9
134 23 229 95 71 53 139 125 195 207 43 65 123 223 140 280 6 21 14 38 18 38
4 0 76 -33 161 -74z m-4511 -14 c76 -194 222 -379 374 -470 62 -38 109 -51
179 -52 27 0 57 -5 69 -11 20 -11 19 -11 -8 -41 -39 -41 -171 -139 -256 -190
-68 -41 -70 -41 -103 -25 -18 8 -56 36 -84 61 -73 65 -119 86 -189 86 -173 0
-435 -171 -857 -560 -205 -189 -551 -545 -760 -784 l-61 -69 -73 112 c-75 115
-168 294 -215 414 l-27 68 48 57 c81 96 592 604 688 684 125 104 313 243 463
342 234 154 755 459 775 453 5 -1 21 -35 37 -75z"/>
<path d="M3725 7393 c-64 -35 -76 -85 -40 -160 25 -51 74 -93 108 -93 9 0 28
11 43 24 24 20 28 32 32 87 3 53 -1 72 -20 109 -21 39 -29 45 -59 47 -19 2
-47 -5 -64 -14z"/>
<path d="M5231 7386 c-30 -32 -53 -112 -46 -158 9 -48 46 -88 83 -88 78 0 151
137 112 211 -12 22 -80 59 -108 59 -10 0 -29 -11 -41 -24z"/>
<path d="M4040 7111 c-19 -10 -44 -33 -54 -51 -17 -29 -18 -37 -6 -69 26 -75
123 -163 163 -148 21 8 38 73 40 159 2 67 1 71 -31 99 -38 34 -64 36 -112 10z"/>
<path d="M4898 7090 l-30 -31 7 -82 c8 -90 26 -147 48 -147 8 0 32 13 53 29
120 86 141 187 51 241 -48 30 -93 26 -129 -10z"/>
<path d="M3436 7019 c-59 -47 -98 -178 -61 -209 37 -31 147 19 171 77 15 35 7
93 -19 134 -16 25 -58 24 -91 -2z"/>
<path d="M5524 7004 c-45 -108 -14 -172 98 -204 96 -28 105 101 12 197 -53 56
-88 59 -110 7z"/>
<path d="M4507 6868 c-48 -13 -102 -65 -111 -108 -25 -126 40 -361 105 -384
42 -14 82 22 129 117 72 145 75 270 9 350 -33 40 -57 45 -132 25z"/>
<path d="M3897 6660 c-42 -34 -38 -87 18 -199 49 -96 118 -176 163 -188 38 -9
104 29 130 76 25 45 29 109 8 149 -21 41 -106 117 -164 146 -75 38 -121 43
-155 16z"/>
<path d="M5010 6643 c-68 -36 -149 -108 -166 -150 -36 -84 -5 -170 75 -210
l44 -22 40 22 c52 29 96 84 143 177 68 137 55 210 -39 210 -27 0 -63 -10 -97
-27z"/>
<path d="M4535 5964 c-208 -29 -345 -96 -345 -169 0 -35 52 -89 107 -113 115
-49 371 -56 484 -13 105 40 154 124 115 199 -20 38 -46 59 -95 77 -44 15 -209
27 -266 19z"/>
<path d="M3015 5597 c-206 -68 -374 -313 -431 -629 -22 -123 -22 -343 0 -466
43 -238 152 -443 291 -549 98 -74 135 -87 250 -88 94 0 105 2 167 33 253 125
414 489 395 897 -13 284 -100 516 -253 672 -96 99 -174 136 -294 140 -51 2
-101 -2 -125 -10z m446 -433 c40 -20 84 -78 108 -141 103 -269 -96 -626 -302
-540 -46 20 -101 85 -128 153 -31 81 -31 231 0 318 30 83 64 139 112 179 65
56 141 67 210 31z"/>
<path d="M5949 5595 c-71 -26 -124 -58 -177 -109 -324 -306 -367 -1006 -86
-1402 156 -221 389 -286 585 -163 61 39 157 140 201 214 46 76 93 195 121 304
19 75 22 113 22 296 0 232 -12 304 -76 463 -78 196 -224 355 -363 397 -60 18
-178 18 -227 0z m-43 -440 c98 -58 164 -202 164 -361 0 -149 -50 -258 -142
-305 -111 -57 -243 28 -309 199 -18 46 -22 78 -23 167 -1 130 16 190 71 255
70 82 150 97 239 45z"/>
<path d="M4322 3925 c-84 -19 -121 -41 -159 -99 -76 -112 -71 -231 14 -343 38
-50 160 -146 225 -176 29 -13 77 -30 106 -37 l52 -12 0 -147 0 -147 -43 -36
c-189 -158 -398 -209 -621 -152 -85 22 -132 49 -205 116 -59 55 -164 119 -176
107 -9 -9 16 -71 47 -117 16 -23 47 -54 68 -68 27 -18 41 -36 45 -57 13 -65
59 -195 102 -286 60 -130 152 -265 271 -397 210 -233 366 -319 577 -318 82 1
115 6 180 28 335 114 662 527 736 931 11 56 17 69 46 91 67 51 129 143 121
180 -5 24 -102 -30 -175 -98 -78 -73 -156 -108 -288 -128 -188 -29 -399 38
-544 173 l-41 38 0 139 c0 77 3 140 8 140 37 1 153 34 192 56 67 37 155 131
188 201 35 76 37 193 5 264 -32 72 -87 126 -147 146 -71 23 -491 29 -584 8z
m526 -143 c32 -18 25 -51 -17 -79 -32 -22 -43 -23 -222 -23 l-188 0 -36 31
c-82 72 -35 89 245 86 139 -2 202 -6 218 -15z m452 -1181 c-16 -34 -32 -61
-34 -61 -7 0 -69 111 -65 114 9 8 124 21 127 14 2 -3 -11 -34 -28 -67z m-1262
53 c2 -1 -12 -31 -32 -66 l-35 -63 -31 67 c-16 37 -30 70 -30 73 0 6 121 -5
128 -11z"/>
</g>
</svg>
