<?xml version="1.0" encoding="UTF-8"?>
<svg data-name="Слой 1" viewBox="0 0 309.46 44.3" xmlns="http://www.w3.org/2000/svg" xmlns:xlink="http://www.w3.org/1999/xlink">
<defs>
<style>.cls-1 {
        fill: none;
      }

      .cls-2 {
        fill: url(#a);
      }

      .cls-3 {
        clip-path: url(#d);
      }

      .cls-4 {
        fill: url(#c);
      }

      .cls-5 {
        fill: url(#b);
      }

      .cls-6 {
        fill: #fff;
      }</style>
<linearGradient id="a" x1="217.37" x2="309.5" y1="21.72" y2="21.72" data-name="Безымянный градиент" gradientTransform="matrix(1 0 0 -1 0 43.89)" gradientUnits="userSpaceOnUse">
<stop stop-color="#8af7e4" offset=".12"/>
<stop stop-color="#48adf1" offset="1"/>
</linearGradient>
<clipPath id="d">
<path class="cls-1" d="M243.09,1.22v41.9H233l-6-19v19h-9.63V1.22H227l6.45,18.87V1.22Zm34.07,0L268.77,28V43.12H258.11V28L250,1.22h10.58a164.4,164.4,0,0,1,2.79,16.51q1-6.71,3.21-16.51Zm30.24,0-4,18.53,6.1,23.37H298.79a126.45,126.45,0,0,1-3.5-15.27q-.44,4-1.22,8.44L293,43.12H281.78L286,19.75,281.78,1.22h11.13q.3,1.74,1.2,5.77.72,3.07,1.18,5.67l2.46-11.44Z"/>
</clipPath>
<linearGradient id="c" x1="129.57" x2="358.87" y1="21.95" y2="21.95" data-name="Безымянный градиент 2" xlink:href="#a"/>
<linearGradient id="b" x1="162.74" x2="358.87" y1="21.95" y2="21.95" data-name="Безымянный градиент 3" xlink:href="#a"/>
</defs>
<path class="cls-2" d="M243.09,1.22v41.9H233l-6-19v19h-9.63V1.22H227l6.45,18.87V1.22Zm34.07,0L268.77,28V43.12H258.11V28L250,1.22h10.58a164.4,164.4,0,0,1,2.79,16.51q1-6.71,3.21-16.51Zm30.24,0-4,18.53,6.1,23.37H298.79a126.45,126.45,0,0,1-3.5-15.27q-.44,4-1.22,8.44L293,43.12H281.78L286,19.75,281.78,1.22h11.13q.3,1.74,1.2,5.77.72,3.07,1.18,5.67l2.46-11.44Z"/>
<g class="cls-3">
<rect class="cls-4" x="129.57" y="-8.91" width="229.3" height="61.69"/>
<rect class="cls-5" x="162.74" y="-8.91" width="196.13" height="61.69"/>
</g>
<path class="cls-6" d="M20.52,43.12c-9.66,0-17.75-8.88-17.75-20.19S10.86,2.74,20.52,2.74H38.69A15.3,15.3,0,0,1,50.46,8.65l-3.14,3.8a11.19,11.19,0,0,0-8.63-4.33H20.52C13,8.12,7.21,14.92,7.21,22.93S13,37.73,20.52,37.73h26.1v5.39Z"/>
<path class="cls-6" d="M69.87,16.2H92.05c7.13,0,13.86,5.41,13.86,13.46S99.19,43.12,92.05,43.12H69.87C62.73,43.12,56,37.7,56,29.66S62.73,16.2,69.87,16.2Zm0,21.53H92.05c5.2,0,9.43-3.61,9.43-8.07s-4.23-8.08-9.43-8.08H69.87c-5.2,0-9.43,3.62-9.43,8.08S64.67,37.73,69.87,37.73Z"/>
<path class="cls-6" d="m125.32 43.12a13.67 13.67 0 0 1-13.86-13.46 13.67 13.67 0 0 1 13.86-13.46h25.51v5.38h-25.51c-5.2 0-9.43 3.62-9.43 8.08s4.23 8.07 9.43 8.07h28.83v-35h4.44v40.39z"/>
<path class="cls-6" d="M184.1,32.69a9,9,0,0,1-8.87-9.09V22.53a8,8,0,0,0-5,7.13c0,4.46,4.22,8.07,9.42,8.07h30v5.39h-30A13.67,13.67,0,0,1,165.8,29.66,13.67,13.67,0,0,1,179.66,16.2h22.06c4.24,0,7.68,2,10.48,5.06l.73.8V32.69Zm24.4-8.19a9.21,9.21,0,0,0-6.78-2.92H179.66v2A4.41,4.41,0,0,0,184.1,28h24.4Z"/>
</svg>