<?xml version="1.0" encoding="utf-8"?>
<!-- Generator: Adobe Illustrator 26.0.1, SVG Export Plug-In . SVG Version: 6.00 Build 0)  -->
<svg version="1.1" baseProfile="tiny" id="Слой_1"
	 xmlns="http://www.w3.org/2000/svg" xmlns:xlink="http://www.w3.org/1999/xlink" x="0px" y="0px" viewBox="0 0 384 384"
	 overflow="visible" xml:space="preserve">
<g>
	<path fill="#2B5675" d="M240.6,383c-2-1.8-4.6-1.5-6.9-2.2c-26-7.3-43.9-32.8-41.6-59.8c2.3-27.5,23.7-49.7,50.7-52.6
		c4.3-0.6,8.7-0.8,13-0.1c27.2,3.2,48.2,24.7,50.7,51.6c2.9,30.2-18.3,57.2-47.6,62.2c-0.7,0.1-1.5-0.2-1.9,0.8
		C251.6,383,246.1,383,240.6,383z M242.8,281.2c-2.2,0.5-4.4,0.8-6.5,1.6c-4.8,1.7-9.8,3.2-13.2,7.4c-4.2,1.8-7.4,4.5-8.7,9
		c-0.4,0-0.9-0.1-1.1,0.1c-4.2,6-7.5,12.3-7.7,19.9c-1.7,4.2-1.2,8.5-0.2,12.8c0.8,7.5,3.6,14.1,8.3,20c2.5,3.6,5.6,6.7,9.2,9.2
		c5.9,4.7,12.5,7.4,20,8.3c4.3,1,8.5,1.5,12.8-0.2c7.5-0.2,13.9-3.5,19.9-7.7c0.2-0.1,0.1-0.7,0.1-1.1c4.5-1.3,7.2-4.5,9-8.7
		c1.6-0.3,2-1.8,2.7-2.9c3.3-5.2,5.2-10.9,6.3-16.8c0.3-4.4,0.7-8.7-0.1-13.1c-0.5-2.2-0.8-4.4-1.5-6.5c-1.7-4.9-3.3-9.9-7.4-13.4
		c-2-4-4.7-7.1-8.9-8.9c-0.3-1.4-1.6-1.8-2.6-2.5c-5.3-3.4-11.1-5.5-17.3-6.5C251.5,280.2,247.1,280.9,242.8,281.2z"/>
	<path fill="#E94A4A" d="M83.6,98.7C64.3,120.2,52,145,47.2,173.5c-1.6,9.4-2.1,18.8-2,28.3c0.1,6.6-2.1,8.8-8.7,8.8
		c-7.2,0-14.5,0.1-21.7,0c-5.5,0-7.9-2.2-8-7.6c-0.6-50.3,15.5-94.3,49.7-131.4C65.8,80.4,74.8,89.4,83.6,98.7z"/>
	<path fill="#38CAA1" d="M329.7,148.5c-0.5-4.3-2.6-8-4.3-11.8c-6.3-14-14.9-26.5-25.1-38c8.7-9.3,17.8-18.3,27.1-27.1
		c23.2,24.9,38.2,54,45.6,87.2c3.1,13.9,4.1,28,4.2,42.3c0.1,7.6-1.9,9.5-9.5,9.5c-6.7,0-13.4,0-20.2,0c-6.6,0-8.9-2.2-8.8-8.7
		c0.2-12.6-0.7-25.1-3.9-37.4c2.6-1.5,5.1-3,7.6-4.6c2.5-1.6,3.4-4,2.7-6.8c-0.8-3-2.9-5-6.2-5.1C335.9,148,332.8,147.8,329.7,148.5
		z"/>
	<path fill="#2A5574" d="M329.7,148.5c3.1-0.7,6.2-0.6,9.3-0.5c3.2,0.1,5.3,2.1,6.2,5.1c0.7,2.8-0.2,5.2-2.7,6.8
		c-2.5,1.6-5.1,3.1-7.6,4.6c-9.8,5.2-19.5,10.4-29.3,15.6c-4.1,1.7-8.3,3.4-11.9,6.1c-1.5-0.3-2.6,0.7-3.8,1.2
		c-27.4,12.7-55.5,23.8-84.4,32.8c0.3-1.3,1.5-1.6,2.3-2.3c8.7-7.6,12-17.1,8.4-28.1c-3.4-10.3-10.9-16.3-22-17.2
		c-1-0.1-1.6-0.5-2.1-1.3c21.2-6,42.7-10.6,64.5-14.3c8.8-1.5,17.7-3.1,26.6-3.9c1.2-0.2,2.4-0.3,3.6-0.7c3.3-1,6.9,0,10.1-1.5
		c7.5,0.1,14.8-1.4,22.2-1.7C322.6,149.1,326.2,148.8,329.7,148.5z"/>
	<path fill="#F76E51" d="M185.3,51.1c-26.5,1.3-50.9,9.1-73.2,23.5C105.3,79,98.9,83.9,93,89.5c-9.1-9.1-18.2-18.2-27.2-27.2
		C93,37.1,125,21.4,161.5,15c7.9-1.4,15.8-2.1,23.8-2.4C185.3,25.5,185.3,38.3,185.3,51.1z"/>
	<path fill="#FBCA55" d="M198.6,12.7c41,1.8,77.7,15.3,109.7,41.1c3.4,2.7,6.7,5.6,10,8.4c-9.2,9.1-18.3,18.3-27.5,27.4
		c-14.3-13.5-30.8-23.3-49.3-30c-13.9-5-28.2-7.9-42.9-8.4C198.6,38.3,198.6,25.5,198.6,12.7z"/>
	<path fill="#376F93" d="M296.8,150.9c-3.2,1.5-6.8,0.5-10.1,1.5c-1.2,0.3-2.4,0.5-3.6,0.7c0.6-1.4-0.4-2.4-1-3.4
		c-17.6-31.2-44.1-49.8-79.8-53.4c-52.6-5.3-98.6,28.6-110.2,80.2c-1.3,5.7-2,11.5-2.1,17.4c0,1.2,0,2.5-0.2,3.7
		c-0.5,4.1-2.9,6.4-6.4,6.4c-3.7,0-6.3-2.7-6.3-6.9c0-7.5,0.5-15,2.3-22.3C90.7,127.5,120,97,167.5,85.6
		C219,73.2,273.8,100.7,296,148.8C296.3,149.5,296.5,150.2,296.8,150.9z"/>
	<path fill="#356D92" d="M192,171.3c0.5,0.8,1.2,1.2,2.1,1.3c11.1,0.9,18.6,6.8,22,17.2c3.7,11,0.4,20.5-8.4,28.1
		c-0.8,0.7-2,1.1-2.3,2.3c-6.6,2.6-13.3,4.1-20.3,2.1c-11.3-3.3-18.7-13.2-18.6-25c0.1-11.6,8.1-21.6,19.7-24.6
		C188.1,172.2,190.1,171.8,192,171.3z"/>
	<path fill="#CCD0DA" d="M147.3,280.5c-10.3,0-20.7,0-31,0c-4.8,0-7.1-2-7.3-6.1c-0.2-3.4,2.9-6.6,7.1-6.6c20.7-0.1,41.4-0.1,62,0
		c3.2,0,6,1.4,7,4.6c0.8,2.6,0.3,5.1-2.1,7c-1.3,1-2.7,1-4.2,1C168.2,280.5,157.8,280.5,147.3,280.5z"/>
	<path fill="#CBCFD9" d="M134.4,312.6c-10.2,0-20.4,0-30.6,0c-4.6,0-7.6-2.5-7.5-6.4c0-3.4,3.3-6.3,7.4-6.3c20.5,0,41.1,0,61.6,0
		c4.9,0,7.4,2.4,7.3,6.5c-0.1,4.2-2.5,6.2-7.5,6.2C154.8,312.6,144.6,312.6,134.4,312.6z"/>
	<path fill="#274858" d="M198.6,12.7c0,12.8,0,25.7,0,38.5c-0.1,2.2-0.1,4.5-0.3,6.7c-0.4,3.7-3,5.9-6.5,5.8
		c-3.3-0.1-5.7-2.2-6.1-5.8c-0.3-2.2-0.2-4.4-0.3-6.7c0-12.8,0-25.6,0-38.4c0.1-2.2,0.1-4.4,0.3-6.6c0.4-3.7,2.8-6.1,6.2-6.2
		c3.5-0.1,6.2,2.4,6.6,6.2C198.6,8.2,198.5,10.5,198.6,12.7z"/>
	<path fill="#1F4457" d="M65.7,62.2c9.1,9.1,18.2,18.2,27.2,27.2c1.3,1.4,2.5,2.7,3.8,4.1c3.2,3.3,3.4,7.2,0.7,9.8
		c-2.9,2.8-6.3,2.4-9.8-0.9c-1.3-1.3-2.7-2.5-4.1-3.8c-8.8-9.3-17.8-18.3-27.1-27.1c-1.1-1.2-2.1-2.4-3.3-3.5c-4-4-4.5-7.7-1.5-10.6
		c2.9-2.8,6.6-2.3,10.4,1.5C63.3,60.1,64.5,61.1,65.7,62.2z"/>
	<path fill="#1F4457" d="M290.9,89.6c9.2-9.1,18.3-18.3,27.5-27.4c1.7-1.6,3.4-3.3,5.2-4.8c2.7-2.3,6.4-2.2,8.8,0.1
		c2.4,2.4,2.6,6,0.2,8.7c-1.6,1.9-3.3,3.6-5,5.4c-9.3,8.8-18.4,17.8-27.1,27.1c-1.6,1.5-3.2,3-4.9,4.5c-3.1,2.7-6.7,2.7-9.2-0.1
		c-2.4-2.5-2.3-6.2,0.3-9C288,92.6,289.4,91.1,290.9,89.6z"/>
	<path fill="#CBCFD9" d="M141,332c8.2,0,16.4,0,24.6,0c4.5,0,6.8,2.1,6.9,6c0.1,4.1-2.3,6.6-6.8,6.6c-16.4,0.1-32.9,0.1-49.3,0
		c-6.3,0-9.2-5.1-6.2-10.1c1.4-2.3,3.4-2.6,5.8-2.6C124.3,332.1,132.6,332,141,332z"/>
	<path fill="#CCD0DA" d="M160,376.3c-6.1,0-12.2,0-18.3,0c-4.4,0-7.1-2.2-7.2-5.9c-0.1-3.3,2.9-6.7,6.7-6.8
		c12.5-0.2,24.9-0.1,37.4,0c3,0,5.7,1.6,6.6,4.6c0.8,2.6,0.3,5.2-2.2,7c-1.2,0.9-2.5,1-3.9,1C172.7,376.3,166.3,376.3,160,376.3z"/>
	<path fill="#2E5876" d="M243,255.7c-2-0.9-4.2-0.3-6.2-0.5c-3.9-0.3-6.5-2.8-6.6-6.3c-0.1-3.3,2.5-6.3,6-6.4
		c8.8-0.2,17.6-0.2,26.5,0c3.6,0.1,5.9,3.1,5.7,6.6c-0.1,3.5-2.5,5.7-6.2,6.1c-2.2,0.2-4.5-0.6-6.6,0.7
		C251.5,254.3,247.3,254.8,243,255.7z"/>
	<path fill="#376F93" d="M293.7,186.3c3.6-2.7,7.8-4.4,11.9-6.1c0.8,5.4,1.2,10.9,1.3,16.3c0.1,4.6-2.4,7.6-6.3,7.6
		c-3.8,0.1-6.3-2.5-6.5-7C293.8,193.5,293.8,189.9,293.7,186.3z"/>
	<path fill="#CCD0DA" d="M86.8,344.8c-3.6,0-7.3,0.1-9.1-4c-1.7-3.8,0.9-8.4,5.1-8.7c2.2-0.1,4.5-0.1,6.7,0c4.3,0.1,6.7,2.3,6.8,6.2
		c0.1,3.3-3,6.3-6.8,6.5C88.5,344.8,87.7,344.8,86.8,344.8z"/>
	<path fill="#CCD0DA" d="M86.3,280.5c-2.4-0.2-5.2,0.6-7.4-1.9c-3.1-3.6-2.1-8.4,2.3-10c3.4-1.2,6.8-1.3,10.3-0.3
		c3.4,1,5.3,3.9,4.7,7c-0.6,3.4-2.8,5.1-6.3,5.1C88.7,280.5,87.6,280.5,86.3,280.5z"/>
	<path fill="#CCD0DA" d="M73.7,312.6c-6.1,0-9.6-2.3-9.5-6.4c0-4.1,3.5-6.3,9.6-6.3c6.1,0,9.6,2.2,9.7,6.2
		C83.6,310.2,80,312.6,73.7,312.6z"/>
	<path fill="#CCD0DA" d="M112,376.3c-1,0-2,0-3,0c-3.2,0.1-5.2-1.5-6-4.4c-0.9-3.3,0.8-6.4,3.9-7.5c3.4-1.2,6.8-1.2,10.3-0.1
		c3.3,1.1,4.7,3.5,4.4,6.9c-0.3,3.1-2.7,5.1-6.2,5.2C114.3,376.3,113.1,376.3,112,376.3z"/>
	<path fill="#1F4457" d="M243,255.7c4.2-0.9,8.4-1.4,12.6,0.2c0.1,4.2,0.1,8.3,0.2,12.5c-4.3-0.8-8.7-0.6-13,0.1
		C242.9,264.2,243,259.9,243,255.7z"/>
	<path fill="#EDEFF3" d="M275.7,360.5c0,0.4,0.1,0.9-0.1,1.1c-6,4.2-12.3,7.5-19.9,7.7c0-1.7,0.1-3.5,0-5.2c-0.2-4-2.5-6.5-6-6.6
		c-3.7-0.1-6.4,2.4-6.7,6.5c-0.1,1.8-0.1,3.7-0.1,5.6c-7.5-0.8-14.1-3.6-20-8.3c1.4-1.5,3-3,4.3-4.6c2.1-2.7,1.9-6.1-0.4-8.4
		c-2.3-2.3-5.7-2.6-8.4-0.4c-1.6,1.3-3.1,2.9-4.6,4.3c-4.7-5.9-7.5-12.6-8.3-20c2.3-0.1,4.7,0,7-0.4c3.4-0.6,5.4-3.5,5-6.8
		c-0.4-3.4-2.4-5.4-5.9-5.6c-2-0.1-4,0-5.9,0c0.2-7.5,3.5-13.9,7.7-19.9c0.1-0.2,0.7-0.1,1.1-0.1c1.3,1.3,2.4,2.8,3.8,4
		c2.7,2.2,6.4,2,8.7-0.4c2.3-2.4,2.4-6,0.1-8.7c-1.2-1.4-2.6-2.6-3.9-3.9c3.5-4.2,8.4-5.7,13.2-7.4c2.1-0.7,4.3-1.1,6.5-1.6
		c0.1,2.1,0.1,4.2,0.3,6.3c0.4,3.7,3.1,6,6.5,5.9c3.5-0.1,5.9-2.5,6.1-6.2c0.1-2,0.1-4,0.2-6c6.2,1,12,3.1,17.3,6.5
		c1,0.7,2.3,1,2.6,2.5c-1.4,1.4-3,2.7-4.2,4.2c-2.2,2.6-1.9,6.2,0.4,8.5c2.3,2.3,5.8,2.6,8.5,0.4c1.5-1.2,2.8-2.8,4.2-4.2
		c4.1,3.6,5.7,8.6,7.4,13.4c0.7,2.1,1,4.3,1.5,6.5c-1.8,0-3.7,0.1-5.5,0.1c-4,0.2-6.5,2.4-6.7,6c-0.2,3.7,2.3,6.4,6.4,6.7
		c2,0.2,3.9,0.2,5.9,0.3c-1.2,6-3,11.7-6.3,16.8c-0.7,1.1-1.1,2.6-2.7,2.9c-1.4-1.4-2.7-2.9-4.2-4.2c-2.7-2.1-6.1-1.8-8.4,0.5
		c-2.1,2.1-2.5,5.7-0.6,8.2C272.7,357.9,274.3,359.2,275.7,360.5z M262.3,312.8c-0.3-3-1.6-5.2-4.3-6.1c-3-0.9-5.8-0.2-7.5,2.6
		c-1.3,2.1-2.3,4.4-3.4,6.6c-5.6,11-6.1,10.2,3.1,19.2c3.5,3.5,7.4,3.9,10.1,1.2c2.9-2.8,2.7-6.5-1-10.1c-1.6-1.6-1.8-2.8-0.8-4.8
		C260,318.7,261.8,316,262.3,312.8z"/>
	<path fill="#204658" d="M284.7,299.1c-1.4,1.4-2.7,3-4.2,4.2c-2.7,2.2-6.2,1.9-8.5-0.4c-2.3-2.3-2.6-5.8-0.4-8.5
		c1.2-1.5,2.8-2.8,4.2-4.2C280,291.9,282.8,295.1,284.7,299.1z"/>
	<path fill="#204658" d="M213.7,352c1.5-1.4,3-3,4.6-4.3c2.7-2.1,6.1-1.9,8.4,0.4c2.3,2.3,2.6,5.7,0.4,8.4c-1.3,1.6-2.9,3.1-4.3,4.6
		C219.3,358.7,216.2,355.6,213.7,352z"/>
	<path fill="#1F4457" d="M205.6,319.2c2,0,4-0.1,5.9,0c3.4,0.2,5.4,2.2,5.9,5.6c0.4,3.3-1.6,6.2-5,6.8c-2.3,0.4-4.7,0.3-7,0.4
		C204.4,327.7,203.9,323.5,205.6,319.2z"/>
	<path fill="#1F4457" d="M242.9,369.5c0-1.9,0-3.7,0.1-5.6c0.3-4,3-6.6,6.7-6.5c3.6,0.1,5.9,2.6,6,6.6c0.1,1.7,0,3.5,0,5.2
		C251.5,371,247.2,370.5,242.9,369.5z"/>
	<path fill="#204658" d="M223.1,290.2c1.3,1.3,2.7,2.5,3.9,3.9c2.4,2.7,2.3,6.2-0.1,8.7c-2.3,2.4-6,2.6-8.7,0.4
		c-1.4-1.2-2.6-2.6-3.8-4C215.7,294.7,218.9,292,223.1,290.2z"/>
	<path fill="#1F4457" d="M255.9,281.3c0,2,0,4-0.2,6c-0.2,3.7-2.7,6.1-6.1,6.2c-3.4,0.1-6.1-2.2-6.5-5.9c-0.2-2.1-0.2-4.2-0.3-6.3
		C247.1,280.9,251.5,280.2,255.9,281.3z"/>
	<path fill="#204658" d="M275.7,360.5c-1.4-1.4-3-2.6-4.2-4.2c-1.9-2.4-1.5-6,0.6-8.2c2.3-2.3,5.8-2.6,8.4-0.5
		c1.5,1.2,2.8,2.8,4.2,4.2C282.9,356,280.2,359.2,275.7,360.5z"/>
	<path fill="#1F4457" d="M293.7,332.2c-2-0.1-3.9-0.1-5.9-0.3c-4-0.4-6.5-3.1-6.4-6.7c0.2-3.5,2.7-5.8,6.7-6
		c1.8-0.1,3.7-0.1,5.5-0.1C294.4,323.4,294,327.8,293.7,332.2z"/>
	<path fill="#204658" d="M262.3,312.8c-0.4,3.2-2.3,5.9-3.8,8.7c-1,2-0.8,3.2,0.8,4.8c3.7,3.6,3.9,7.2,1,10.1
		c-2.8,2.7-6.6,2.3-10.1-1.2c-9.2-9-8.7-8.2-3.1-19.2c1.1-2.2,2.1-4.5,3.4-6.6c1.7-2.8,4.5-3.6,7.5-2.6
		C260.7,307.6,262,309.9,262.3,312.8z"/>
</g>
</svg>
