<?xml version="1.0" encoding="UTF-8"?>
<svg data-name="Слой 1" viewBox="0 0 309.46 44.3" xmlns="http://www.w3.org/2000/svg" xmlns:xlink="http://www.w3.org/1999/xlink">
<defs>
<style>.cls-1 {
        fill: none;
      }

      .cls-2 {
        fill: url(#a);
      }

      .cls-3 {
        clip-path: url(#d);
      }

      .cls-4 {
        fill: url(#c);
      }

      .cls-5 {
        fill: url(#b);
      }</style>
<linearGradient id="a" x1="217.37" x2="309.5" y1="21.72" y2="21.72" data-name="Безымянный градиент" gradientTransform="matrix(1 0 0 -1 0 43.89)" gradientUnits="userSpaceOnUse">
<stop stop-color="#f9f" offset="0"/>
<stop stop-color="#ede107" offset="1"/>
</linearGradient>
<clipPath id="d">
<path class="cls-1" d="M243.09,1.22v41.9H233l-6-19v19h-9.63V1.22H227l6.45,18.87V1.22Zm34.07,0L268.77,28V43.12H258.11V28L250,1.22h10.58a164.4,164.4,0,0,1,2.79,16.51q1-6.71,3.21-16.51Zm30.24,0-4,18.53,6.1,23.37H298.79a126.45,126.45,0,0,1-3.5-15.27q-.44,4-1.22,8.44L293,43.12H281.78L286,19.75,281.78,1.22h11.13q.3,1.74,1.2,5.77.72,3.07,1.18,5.67l2.46-11.44Z"/>
</clipPath>
<linearGradient id="c" x1="129.57" x2="358.87" y1="21.95" y2="21.95" data-name="Безымянный градиент 2" xlink:href="#a"/>
<linearGradient id="b" x1="162.74" x2="358.87" y1="21.95" y2="21.95" data-name="Безымянный градиент 3" xlink:href="#a"/>
</defs>
<path class="cls-2" d="M243.09,1.22v41.9H233l-6-19v19h-9.63V1.22H227l6.45,18.87V1.22Zm34.07,0L268.77,28V43.12H258.11V28L250,1.22h10.58a164.4,164.4,0,0,1,2.79,16.51q1-6.71,3.21-16.51Zm30.24,0-4,18.53,6.1,23.37H298.79a126.45,126.45,0,0,1-3.5-15.27q-.44,4-1.22,8.44L293,43.12H281.78L286,19.75,281.78,1.22h11.13q.3,1.74,1.2,5.77.72,3.07,1.18,5.67l2.46-11.44Z"/>
<g class="cls-3">
<rect class="cls-4" x="129.57" y="-8.91" width="229.3" height="61.69"/>
<rect class="cls-5" x="162.74" y="-8.91" width="196.13" height="61.69"/>
</g>
<path d="M20.52,42.65c-9.66,0-17.75-8.88-17.75-20.2S10.86,2.26,20.52,2.26H38.69A15.3,15.3,0,0,1,50.46,8.17L47.32,12a11.19,11.19,0,0,0-8.63-4.33H20.52c-7.49,0-13.31,6.8-13.31,14.8S13,37.26,20.52,37.26h26.1v5.39Z"/>
<path d="m69.87 15.72h22.18c7.14 0 13.86 5.42 13.86 13.46s-6.72 13.47-13.86 13.47h-22.18c-7.14 0-13.87-5.42-13.87-13.47s6.73-13.46 13.87-13.46zm0 21.54h22.18c5.2 0 9.43-3.62 9.43-8.08s-4.23-8.07-9.43-8.07h-22.18c-5.2 0-9.43 3.62-9.43 8.07s4.23 8.08 9.43 8.08z"/>
<path d="m125.32 42.65a13.67 13.67 0 0 1-13.86-13.47 13.67 13.67 0 0 1 13.86-13.46h25.51v5.39h-25.51c-5.2 0-9.43 3.62-9.43 8.07s4.23 8.08 9.43 8.08h28.83v-35h4.44v40.39z"/>
<path d="M184.1,32.21a9,9,0,0,1-8.87-9.08V22.06a8,8,0,0,0-5,7.12c0,4.46,4.22,8.08,9.42,8.08h30v5.39h-30A13.67,13.67,0,0,1,165.8,29.18a13.67,13.67,0,0,1,13.86-13.46h22.06c4.24,0,7.68,2,10.48,5.07l.73.8V32.21ZM208.5,24a9.18,9.18,0,0,0-6.78-2.92H179.66v2a4.41,4.41,0,0,0,4.44,4.37h24.4Z"/>
</svg>
