<?xml version="1.0" encoding="utf-8"?>
<!-- Generator: Adobe Illustrator 26.0.1, SVG Export Plug-In . SVG Version: 6.00 Build 0)  -->
<svg version="1.1" baseProfile="tiny" id="Слой_1"
	 xmlns="http://www.w3.org/2000/svg" xmlns:xlink="http://www.w3.org/1999/xlink" x="0px" y="0px" viewBox="0 0 384 384"
	 overflow="visible" xml:space="preserve">
<g>
	<path fill="#FEDA2F" d="M0.1,233.5c2.2-5.6,6.5-8.7,12.3-10.3c7.1-2,14-4.5,20.9-6.7c7.4-2.4,14.5,0.9,16.8,7.6
		c2.5,7.2-1.1,14.1-8.9,16.7c-7.1,2.4-14.2,4.6-21.3,6.9c-10.4,3.4-15.1,1.4-19.9-8.2C0.1,237.5,0.1,235.5,0.1,233.5z"/>
	<path fill="#FE9900" d="M191.6,29.9c10.5-1,21.5,5.6,26.9,16.5c8.8,17.7,17.6,35.4,26.2,53.2c1.5,3.1,3.4,4.1,6.7,4.6
		c19.9,2.8,39.9,5.6,59.7,8.9c11.6,1.9,19.3,9,22.8,20.1c3.5,11.1,1.4,21.3-6.8,29.7c-10.9,11-22.1,21.6-33.1,32.4
		c-3.9,3.8-7.8,7.7-11.8,11.5c-1.1,1-1.4,1.9-1.1,3.5c3.6,20.3,7.2,40.6,10.4,61c1.9,11.5-1.9,21.3-11.1,28.4
		c-9.4,7.3-20,8.7-30.9,3.5c-10.4-5-20.5-10.6-30.8-16c-9-4.7-18-9.5-27.1-14.2c0-2,0-4,0-6C191.6,188,191.6,109,191.6,29.9z"/>
	<path fill="#FEDA2D" d="M191.6,29.9c0,79,0,158.1,0,237.1c0,2,0,4,0,6c-18.4,9.6-36.8,19.3-55.3,28.9c-15.8,8.2-32.9,3.5-41.4-11.4
		c-4-7-4.2-14.4-2.8-22.1c3.4-19,6.5-38,9.9-57c0.4-2.5-0.1-3.9-1.8-5.5c-14.7-14.2-29.4-28.4-43.9-42.9
		c-15.4-15.5-9.3-41.7,11.3-48.9c6.2-2.1,12.7-2.4,19.1-3.3c15.9-2.4,31.8-4.6,47.7-6.8c2.2-0.3,2.8-1.8,3.5-3.3
		c8.8-17.8,17.5-35.5,26.3-53.3C169.9,36.2,178.7,29.9,191.6,29.9z"/>
	<path fill="#FE9903" d="M383.2,236.8c-0.1,8.3-8,14.4-16,12.1c-8.9-2.6-17.8-5.5-26.6-8.7c-6.6-2.3-9.7-9.3-7.5-15.8
		c2.1-6.4,8.8-10.2,15.5-8.2c8.8,2.6,17.6,5.5,26.3,8.5C380.1,226.5,383.2,231.4,383.2,236.8z"/>
	<path fill="#FE9903" d="M292.6,56.3c-4.9-0.1-8.6-2.2-11-6.5c-2.4-4.2-2.5-8.8,0.2-12.8c5.3-7.7,10.7-15.3,16.4-22.7
		c4.2-5.4,11.6-6.1,17.1-2.2c5.4,3.8,7.2,11.3,3.4,16.9c-5.3,7.8-10.9,15.4-16.6,23C299.9,55.1,296.5,56.4,292.6,56.3z"/>
	<path fill="#FEDA2F" d="M92.3,56.3c-6.1,0-9.4-1.7-11.9-5c-5.2-7-10.4-14-15.4-21.2c-4.3-6.1-3-13.8,2.7-17.9
		c5.8-4.2,13.4-3.1,17.9,2.9c5.2,7,10.3,14,15.3,21.2c3,4.2,3.2,8.9,0.7,13.4C99.3,54.2,95.4,56.3,92.3,56.3z"/>
	<path fill="#FE9902" d="M191.7,323.5c7.2,0.1,12.6,5.2,12.7,12.3c0.1,8.9,0.1,17.9,0,26.8c-0.1,7.1-5.6,12.2-12.7,12.2
		C191.7,357.7,191.7,340.6,191.7,323.5z"/>
	<path fill="#FEDA2E" d="M191.7,323.5c0,17.1,0,34.2,0,51.3c-7.5-0.3-12.7-5.3-12.7-12.7c-0.1-8.5-0.1-16.9,0-25.4
		C179,329,183.8,324.1,191.7,323.5z"/>
</g>
</svg>
