<?xml version="1.0" encoding="utf-8"?>
<!-- Generator: Adobe Illustrator 26.0.1, SVG Export Plug-In . SVG Version: 6.00 Build 0)  -->
<svg version="1.1" baseProfile="tiny" id="Слой_1"
	 xmlns="http://www.w3.org/2000/svg" xmlns:xlink="http://www.w3.org/1999/xlink" x="0px" y="0px" viewBox="0 0 2000 2000"
	 overflow="visible" xml:space="preserve">
<g>
	<path fill="#A9BAFE" d="M647.3,1347.6c5,4.4,7.3,10.6,10.5,16.2c30.8,52.9,61.4,105.9,92.1,158.9c4.8,8.3,9.6,16.7,14.6,25
		c1.6,2.6,1.3,3.2-1.8,3.5c-14.5,1.2-29.1,2.6-43.6,3.9c-17.5,1.6-35,3.3-52.5,4.8c-13.4,1.2-26.8,2.1-40.2,3.2
		c-17.2,1.5-34.4,3.2-51.5,4.7c-12.7,1.1-25.5,2.1-38.2,3.2c-18,1.6-36,3.2-54,4.8c-13.1,1.1-26.1,2.1-39.2,3.2
		c-17.5,1.5-35,3.2-52.5,4.7c-9.3,0.8-18.5,1.4-27.8,2.2c-18.2,1.6-36.3,3.3-54.5,4.8c-13.2,1.1-26.5,2.1-39.7,3.2
		c-17.7,1.5-35.3,3.2-53,4.8c-12.6,1.1-25.1,2.1-37.7,3.2c-18,1.6-36,3.2-54,4.8c-11.9,1.1-23.8,2.1-35.7,3.1
		c-2.6,0.2-3.7-0.9-3.5-3.4c0.1-0.8,0-1.7,0-2.5c0-80.3,0-160.6-0.1-240.9c0-4.1,0.7-6.2,5.4-6.7c14.7-1.5,29.3-3.5,43.9-5.3
		c8.1-1,16.1-2,24.2-3c1.9,2,4.4,2,6.9,2c50.5,0,101.1,0,151.6,0c-0.3,2.8,1.3,3.1,3.6,3.1c10.3,0.1,20.6,0.3,31,0.5
		c43.8,0.7,87.5,1.3,131.3,2c29.1,0.5,58.3,1.2,87.4,1.3c14.4,0.1,28.9,1.7,43.3-0.9C625,1353.9,636.1,1350.6,647.3,1347.6z"/>
	<path fill="#0048FC" d="M1468.1,1150.3c15.9-25.9,31.9-51.8,47.8-77.8c26-42.4,51.9-84.8,77.7-127.4c2.2-3.6,3.4-3.8,6.9-1.5
		c94.7,62.9,155.2,149.7,181.4,260.3c7.2,30.3,10.8,61,10.6,92c-0.4,100.3-32.2,189.6-95.1,267.8c-7,8.7-14.1,17.3-22.3,24.9
		c-7.2-30.4-16-60.4-26.4-89.8c-15.7-44.3-34.5-87.2-61.3-126.1c-18.3-26.6-39.5-50.2-67.8-66.7c-13.6-7.9-27.9-13.9-43.7-15.9
		c-0.7-0.7-0.7-1.5-0.5-2.4c26.7,0,53.4,0,80.1,0c-4.4-4.2-10-4.1-15.2-6.2c1.4-1.6,2.5-2.9,3.5-4.2c13.9-17.9,8.6-38.9-12.1-47.3
		c-3.5-1.4-7.2-2.3-10.8-3.4c2-3.2,4.1-6.4,5.9-9.8c4.9-9.2,4.4-18.1-2.1-24.5c-9.2-9.1-20.5-13.4-33.6-11.9
		c-2.4,0.3-3.7,0.2-4.1-2.5c-1.1-7.6-5.2-13.7-11-18.4C1472.7,1157,1470.1,1154,1468.1,1150.3z"/>
	<path fill="#A9BAFE" d="M1128.1,1571.4c0,42.5-0.1,85,0.1,127.5c0,4.6-0.9,6.2-5.9,6.2c-101.5-0.2-202.9-0.1-304.4,0
		c-4.6,0-5.8-1.2-5.8-5.8c0.1-101.6,0.1-203.3,0-304.9c0-4.5,1.4-5.5,5.7-5.5c31.3,0.2,62.6,0,94,0.2c4.1,0,5.3-1.1,5.5-5.2
		c0.8-24.5,24.4-47.3,48.9-48.1c14.2-0.5,27,2.6,38.2,11.6c12,9.6,18.4,22.2,19.7,37.2c0.3,4,1.7,4.5,5.1,4.5
		c30.5-0.1,61-0.1,91.5,0c8.7,0,7.6-1.1,7.6,7.8c0,41.7,0,83.3,0,125c-2.8,0.1-4.1,1-2.2,3.8c0.7,1.1,1.5,2,2.3,3.1
		c0,3.3,0,6.6,0,9.9c-8.6,0.8-17.2,1.7-25.7,2.5c-6.2,0.6-11.9,1.9-14.3,8.7c-1.1,0.4-1.4,1.1-1,2.2c-0.4,2.6-0.7,5.1-1.1,7.7
		c-1,0.4-1,1.2-0.8,2.1c-1.4,4.4-0.7,6.6,4.7,6.9C1102.7,1569.2,1115.4,1570.4,1128.1,1571.4z"/>
	<path fill="#0048FC" d="M1126.7,672.8c-3.2,18.3-6.6,36.6-9.7,55c-7.9,46.1-15.9,92.1-23.6,138.2c-0.7,4.1-2,4.7-5.7,4.1
		c-28-4.9-56.1-9.7-84.1-14.5c-4.4-0.8-10-0.4-12.8-3c-2.7-2.5-0.4-8.1-0.6-12.4c-1.1-23.9-21.2-45.9-45-49.1
		c-28.5-3.9-53,12.4-60.4,40.3c-0.8,3-1.7,3.7-5,3.1c-31.8-5.6-63.6-11-95.4-16.3c-2.8-0.5-3.4-1.2-2.9-4.1
		c5.5-31.3,10.8-62.6,16.3-93.9c0.7-3.7,0.2-5.3-4.1-6.5c-26-6.9-43.1-32.5-39.5-58.4c4-28.1,26.6-47.7,54.7-47.3
		c7.9,0.1,7.8,0.1,9.2-7.6c5.2-30.2,10.5-60.3,15.5-90.5c0.6-3.4,1.6-3.9,4.8-3.3c55.7,9.6,111.5,19.1,167.2,28.7
		c45.1,7.7,90.2,15.5,135.3,23.1c3.7,0.6,5.1,1.6,4.3,5.9c-3.5,18.6-6.5,37.4-9.7,56.1c-0.2,1.1-0.2,2.3-0.3,3.5
		c-0.3,1.2-0.9,2.4-0.5,3.8c-1.6,4.4-2,8.9-2.5,13.5C1130.3,651.6,1128.5,662.2,1126.7,672.8z"/>
	<path fill="#FEB027" d="M775.7,1059c0.5-24.8,1.1-49.6,1.6-74.4c0.2-9.4,0.1-9.6,9.6-9.4c30.3,0.7,60.6,1.4,90.9,2.3
		c3.4,0.1,4-0.7,4.3-3.9c2.5-26.8,24.9-47.5,52.3-48.4c25.7-0.9,49.6,18.4,54.3,44c0.7,3.7-1,8.7,2.2,10.7c2.9,1.8,7.4,0.9,11.2,1
		c24.1,0.5,48.3,1,72.4,1.6c5,0.1,10,0.6,15,0.5c3.4-0.1,4.2,1.1,4.1,4.3c-0.6,18.8-1.1,37.6-1.6,56.4c-0.9,35-1.6,69.9-2.5,104.9
		c-1,40.3-2,80.6-3,120.8c-0.2,8.7-0.6,17.3-0.7,26c0,2.8-0.7,3.7-3.7,3.6c-28.3-0.8-56.6-1.4-84.9-2c-3.2-0.1-3.3-1.7-3.3-4.1
		c-0.9-26.6-18.2-47.5-44.2-53.3c-30.1-6.7-61.4,14.9-65.8,45.4c-1.4,9.5-1.4,9.1-11.1,8.7c-24-0.8-47.9-1.2-71.9-1.8
		c-9.1-0.2-18.3-0.7-27.4-0.8c-2.8,0-3.7-0.8-3.6-3.7c0.9-33.8,1.8-67.6,2.6-101.4c0.6-25.6,1.1-51.3,1.6-76.9c13-1,26-2.1,39-3.1
		c6-0.4,6.4-0.8,4.9-7c0.5-0.7,0.3-1.4-0.2-2.1c-0.6-2.6-1.3-5.1-1.9-7.7c1.6-1.4,0.1-1.8-0.8-2.4c-1.8-4.2-4.8-7.2-9.5-7.9
		c-4.3-0.6-8.6-0.5-12.9-1.1c-5.9-0.9-12-0.3-17.6-2.8c0.1-3,0.2-6,0.3-9c0.7-1.1,1.3-2.2,2.1-3.2
		C779.8,1060.3,778.5,1059.3,775.7,1059z"/>
	<path fill="#FEB027" d="M1476,1290.1c15.8,2,30.1,8,43.7,15.9c28.3,16.4,49.5,40.1,67.8,66.7c26.8,38.9,45.6,81.8,61.3,126.1
		c10.4,29.4,19.2,59.4,26.4,89.8c-18.3,20-38.9,37.3-61,52.8c-54.2,38.2-114.3,62.1-179.7,72.3c-10.2,1.6-20.4,3.3-30.7,3.2
		c0-39.2,0-78.4,0-117.6c1.6-0.9,3.3-1.6,4.8-2.6c60.7-42.3,86.6-100.5,79.2-173.8c-0.1-1,0.1-2.4-1.6-2.5c-0.2,0.3-0.6,0.6-0.6,0.8
		c0.2,3.5,0.5,7,0.8,10.4c3.4,41.8-5.8,80.3-29.7,115c-14.2,20.7-31.7,38-53.5,50.7c-1.4-2.8-2.8-5.6-4.2-8.3
		c-0.2-0.6-0.3-1.3-0.6-1.9c-13.8-28.9-27.5-57.8-41.3-86.6c-1.9-4-3.1-8.4-6.4-11.6c0.2-0.8,0.4-1.6-0.2-2.4c-3.1-4.1-1.9-8,0-12.4
		c14.8-33.7,29.3-67.6,43.9-101.4c9.1-21,18.3-41.9,27.5-62.9c5.8,0.6,11.6,0.1,17.4-0.7C1453.7,1307,1466.3,1301.5,1476,1290.1z"/>
	<path fill="#0048FC" d="M237.6,1145c5.7-46.3,16.3-91.5,31.2-135.7c13.1-38.9,29.8-76.1,53.8-109.7c8.3-11.5,17.8-22,27.5-32.2
		c1.9-1.6,3.9-3.1,5.7-4.8c17.7-15.4,37.4-27,60.2-32.8c3.4-0.9,7.8-0.7,9.8-2.8c2.4-2.5-0.3-6.9-0.2-10.5c0-1.6-0.2-2.6,1.8-2.4
		c6.9,3.8,14,7.3,21.5,10.1l0,0c1.1,1.2,2.5,1.8,4.1,2l0,0c0.5,0.7,1.2,1.1,2,1c8.9,4.8,18.1,8.9,27.4,13c2.8,1.2,3.5,2.8,1,5
		c-1.2,1.1-1.6,2.3-0.9,3.9c2.5,6.1,4.9,12.2,7.3,18.4c6.2,16.8,12.3,33.7,18.6,50.5c8.9,23.8,17.8,47.6,26.7,71.4
		c2.1,5.6,3.3,11.5,6,16.9c11.7,23.8,31.4,35.8,57.1,40c33.3,5.5,66.4,12,99.6,17.9c2.5,0.5,3.2,1.3,3.3,3.8
		c0.3,18.6,0.6,37.3,1.2,55.9c0.1,3.4-1,4.6-4.2,5c-27.6,3.5-55.1,6.9-82.8,9.3c-23.7,2.1-47.5,3.8-71.3,3.5
		c-14.5-0.2-29-0.4-42.9-5c-0.7-0.2-0.8,0.3-1.1,0.6c-0.3-2.4-0.3-2.3-2.7-4c-60.3-41.5-86.8-98.6-79.6-171.4
		c0.1-1.3,0.8-2.8-1.2-4.7c-0.4,2.6-0.9,4.5-1,6.3c-4.1,40.6,2.8,78.9,24.4,113.9c15.2,24.8,34.9,45.2,60.2,59.9
		c0.7,6.6,1.4,13.3,2.1,19.9c-6.5,0.3-12.9-0.3-19.4-0.6c-51-2.4-102-4.7-153-7.1C299.1,1147.8,268.3,1146.4,237.6,1145z"/>
	<path fill="#050528" d="M237.6,1145c30.7,1.4,61.5,2.8,92.2,4.2c51,2.3,102,4.6,153,7.1c6.5,0.3,12.9,1,19.4,0.6
		c51.7,2.4,103.4,4.4,155.1,7.3c14,0.8,25.9,8.1,36.4,17.1c17.1,14.4,25.8,33.5,29.3,55.2c2.8,17.6,3.3,35.2-3.4,52.1
		c-9.2,22.9-26.9,37.4-48,48.5c-7.8,4.1-16.1,7-24.2,10.5c-11.2,3-22.4,6.3-33.8,8.4c-14.4,2.5-28.9,1-43.3,0.9
		c-29.1-0.1-58.3-0.9-87.4-1.3c-43.8-0.7-87.5-1.3-131.3-2c-10.3-0.2-20.6-0.4-31-0.5c-2.3,0-3.9-0.4-3.6-3.1
		c0.9-23.2,1.7-46.4,2.6-69.6c0.6-13.3,1.4-26.5,1.6-39.8c0.1-4.3,1.5-4.8,5.2-4.6c37.9,2.1,75.8,4,113.6,6c57.5,3,115,6,172.5,9
		c6.5,0.3,13,0.7,19.4,1c1.7,0.1,3.6,0.6,5.3-0.5c-0.7-2.2-2.5-1.3-3.8-1.3c-66.6-3.5-133.3-7-199.9-10.5
		c-35.9-1.9-71.8-4.3-107.7-5.3c-11.3-0.3-22.5,0.3-33.5-2.5c-41.2-10.3-57.1-39.3-55.6-76.9C236.8,1151.5,237.3,1148.3,237.6,1145z
		"/>
	<path fill="#AABAFE" d="M1881.1,401.9c7.4,9.6,11.9,20.7,16.5,31.6c15.1,35.8,19.5,73.2,17.2,111.7c-0.7,12.2-2.9,24.3-5.8,36.2
		c-0.5,1.9-1.3,3.4-2.9,4.4c-1,0.2-2,0.3-2.9,0.6c-34.2,9.7-68.4,19.4-102.6,29.1c-22.5,6.4-45,13-67.5,19.4
		c-12.9-19-27.9-36.4-43-53.6c-0.4-0.5-0.7-0.9-1.1-1.4l0.1,0.1c-0.4-0.4-0.7-0.7-1.1-1.1c0,0,0.1,0.1,0.1,0.1
		c-0.4-0.4-0.8-0.7-1.2-1.1c-0.3-0.2-0.5-0.5-0.8-0.7c-0.4-3.2-2.8-5.2-4.8-7.4c-6.5-7.3-13.1-14.6-19.7-21.9
		c-17.4-19.5-35.5-38.3-56.5-54c-10.6-7.9-21.5-14.4-36.1-12.2c-24.9,3.6-43.5,19.2-50.3,43.5c-2.5,8.9-2.9,17.9-2.7,27.1
		c-2.3-0.4-3.2-2-4.2-3.1c-7.9-8.1-15.7-16.3-23.5-24.5c-0.9-0.9-2.1-1.7-2.3-3.2c15.9-10.2,21.8-25.1,19.9-43.5
		c-0.6-4.2-1.2-8.5-1.8-12.7c5.9-8.2,11.1-17,18.1-24.3c13.7-14.2,29.4-24.3,49.8-25.3c20.8-1.1,41.5-2.5,62.3-3.4
		c45.5-2.1,91.1-4.1,136.6-6C1807.6,404.7,1844.3,403.3,1881.1,401.9z"/>
	<path fill="#FEB027" d="M1881.1,401.9c-36.7,1.4-73.5,2.8-110.2,4.3c-45.5,1.9-91.1,3.9-136.6,6c-20.8,1-41.5,2.4-62.3,3.4
		c-20.4,1-36.1,11.1-49.8,25.3c-7.1,7.4-12.3,16.1-18.1,24.3c-4-1.3-5.5-5.6-9.2-7.4c-2.1-2.8-0.7-4.1,1.9-5.6
		c10.5-6.2,13.9-18.6,8.3-28.8c-3.7-6.8-10.1-10.8-15.6-9.8l-0.2,0c-1.4-2.5-3.7-1.7-5.7-1.3c-3.2,0.7-6.2,1.9-9.3,2.8
		c-3.6-4.8-6.9-9.9-11.8-13.5c37.1-61.3,90.5-100.5,160.6-115.3c54.5-11.4,107.3-4.4,157.3,20.6c41.3,20.6,73.8,50.8,98.1,89.9
		C1879.5,398.6,1880.2,400.3,1881.1,401.9z"/>
	<path fill="#AABAFE" d="M1766.9,746.9c0.3,28.5-2.6,56.6-10,84.2c-0.6,2.4-1.6,4.7-2.1,7.2c-0.7,3.8-2.9,5.4-6.6,4.8
		c-11.9-1.9-23.9-1.7-35.8-2.8c-3.9-0.6-8.3,1.5-8.8-6.2c-1.5-21.3-5.3-42.3-10.6-63c-0.5-1.9-0.7-3.9-2.1-5.5c0-1,0.2-2-0.1-3
		c-6.8-24.7-15.5-48.7-27.2-71.6c-0.8-1.7-2-3-3.5-4.2c-26.7-21-52.9-42.5-78.3-65c-14.4-12.8-29-25.5-41.9-39.8
		c3.5-1,1-2.4,0.1-3.3c-4.5-4.7-9.4-9-13.5-14c-3-3.6-8.1-6.1-8.4-11.3c-1-16.7,2-32.4,11.7-46.4c16.8-24.2,46.5-30.1,70.5-13.4
		c24.6,17.1,44.5,39.3,64.6,61.3c6.7,7.3,13.3,14.8,20,22.2c-0.4,0.5-0.8,1-1.3,1.4c-25.5,21.6-24.2,61.6,3.2,80.7
		c19.4,13.5,39.5,12.8,59.4,0.6c9.3,19,14.8,39,17.8,59.8C1765.2,728.7,1765.9,737.8,1766.9,746.9z"/>
	<path fill="#0148FC" d="M1403.8,1599.3c0,39.2,0,78.4,0,117.6c-14.1,1.9-28.2,1.9-42.4,1.6c-36.6-0.8-72.6-6.3-107.7-16.5
		c-32.5-9.5-63.5-22.8-92.9-39.6c-3.6-2.1-3.5-3.5-1.6-6.6c15.1-24.5,30-49.1,44.9-73.7c6.9,1.9,13.7,3.7,20.6,5.6
		c32.5,8.8,65.5,14.7,99.2,14.9c25.7,0.1,51-3.6,75-13.6c1.4,2.8,2.8,5.6,4.2,8.3C1403,1598,1402.9,1598.8,1403.8,1599.3z"/>
	<path fill="#AABAFE" d="M1464.7,649.7c-6.1,2.7-10.9,7.4-16.6,10.7c-7.3,4.2-14.3,8.8-21.5,13.2c-1.5,0.9-3.1,1.9-5.1,1.5
		c-0.9-1.4-1.9-2.7-2.8-4.1c-15.8-23.6-48.4-30-71.6-13.7c-18.1,12.8-24.4,30.7-21.5,52.3c-11.6,2.8-23.4,2.8-35.1,2.1
		c-14.5-0.9-29-2.5-43.3-5.6c-21.5-4.6-42.3-11.3-62.3-20.3c-2.4-1.1-3.2-2.6-2.6-5.1c0.6-2.6,1.1-5.2,1.7-7.8
		c2.1-10.7,4.3-21.4,6.4-32.1c0.6-4.4,3.3-5.4,7.3-4.9c14.4,1.8,28.9,1.2,43.4,0.8c28.7-0.9,57.3-3.1,85.6-8.5
		c3.3-0.6,6.5-1.4,9.8-1.6c13.3-0.6,22.3-9.3,31.9-16.8c20-15.4,40-30.8,60-46.3c1.4-1.1,2.6-2.5,3.9-3.8c4.6-2,8.2-5.6,12.1-8.6
		c13-10,25.9-20.1,38.8-30.2c0.3,0.1,0.6,0.2,0.9,0.4c-0.1,1.2,0.3,2.2,1.1,3.1c3.4,3.6,6.7,7.4,10.1,10.9
		c14.8,15.2,29.6,30.3,43.8,46.2c-1.1,1-2.2,2-3.2,3.1c-17.5,20-37,38-58,54.3C1473.4,642.6,1468.5,645.5,1464.7,649.7z"/>
	<path fill="#FEB027" d="M1464.7,649.7c3.8-4.2,8.7-7.1,13.1-10.5c21-16.3,40.4-34.3,58-54.3c1-1.1,2.1-2.1,3.2-3.1
		c0.3,0.2,0.5,0.3,0.9,0.4c12.9,14.3,27.5,27,41.9,39.8c25.4,22.5,51.6,44,78.3,65c1.5,1.2,2.6,2.5,3.5,4.2
		c11.7,22.8,20.4,46.8,27.2,71.6c0.3,0.9,0.1,2,0.1,3c-30.8,1.8-61.1-0.9-90.6-10.3c-56.6-18-100.8-52.1-133-101.8
		C1466.4,652.2,1465.6,651,1464.7,649.7z"/>
	<path fill="#D7938F" d="M1399,1588.8c-24,10-49.2,13.7-75,13.6c-33.7-0.2-66.7-6.1-99.2-14.9c-6.9-1.9-13.7-3.7-20.6-5.6
		c-10-3.5-19.9-7.3-30.1-10.2c-4.1-1.2-8.9-0.7-13.3-0.5c-10.9,0.5-21.8,0.9-32.8,0.2c-12.7-1-25.4-2.3-38.1-2.9
		c-5.4-0.3-6.2-2.5-4.7-6.9c12.4-0.6,24.8-0.5,37.1-2.1c-12.1,0-24.2,0-36.3,0c0.4-2.6,0.7-5.1,1.1-7.7c12.3-0.5,24.7-1,37-1.5
		c0-0.2,0-0.5-0.1-0.7c-12,0-24,0-35.9,0c2.4-6.8,8.1-8.1,14.3-8.7c8.6-0.8,17.2-1.7,25.7-2.5c4.3-0.6,8.7-0.2,13.3-2
		c-4.8-2.8-9-5.3-13.3-7.9c-0.8-1-1.6-2-2.3-3.1c-1.9-2.8-0.5-3.7,2.2-3.8c12.7,2.7,25.1,6.6,36.9,11.6c13.2,5.5,26.8,5.7,40.5,5.3
		c8.9-0.3,17.8-1.2,26.8-1.9c6.9-1,13.8-1.7,20.7-3c29-5.4,56.5-14.7,80.9-31.9c5.8-4.1,11.2-8.8,16.8-13.2
		c3.4,3.2,4.5,7.6,6.4,11.6c13.9,28.8,27.6,57.7,41.3,86.6C1398.6,1587.5,1398.8,1588.2,1399,1588.8z"/>
	<path fill="#0148FC" d="M1350.6,1488.7c-5.6,4.4-11,9.1-16.8,13.2c-24.3,17.3-51.8,26.6-80.9,31.9c-6.8,1.3-13.8,2-20.7,3
		c16.6-27.3,33.2-54.6,49.8-81.8c34-55.8,68.1-111.5,102.2-167.3c1.4-0.1,2.1,0.9,2.8,1.8c4.5,5.6,10.6,7.7,17.5,8
		c5.9,0.3,11.5-1.4,17.2-2.4c0.1,2.3,0.2,4.6,0.4,6.9c-0.1,2.5-0.2,5.1-0.3,7.6c-9.2,21-18.4,41.9-27.5,62.9
		c-14.7,33.8-29.1,67.7-43.9,101.4c-1.9,4.4-3.1,8.3,0,12.4C1351,1487.1,1350.8,1487.9,1350.6,1488.7z"/>
	<path fill="#0F020A" d="M1468.1,1150.3c2,3.7,4.6,6.7,7.9,9.4c5.8,4.7,9.9,10.8,11,18.4c0.4,2.8,1.7,2.8,4.1,2.5
		c13.1-1.5,24.3,2.8,33.6,11.9c6.5,6.4,7,15.3,2.1,24.5c-1.8,3.3-3.9,6.5-5.9,9.8c3.6,1.1,7.3,2,10.8,3.4
		c20.7,8.4,26.1,29.3,12.1,47.3c-1,1.3-2.1,2.5-3.5,4.2c5.2,2.1,10.8,1.9,15.2,6.2c-26.7,0-53.4,0-80.1,0c-0.2-3.2-0.5-6.5-0.7-9.7
		c-0.3-5.4-0.6-10.7-0.9-16.1c0.2-1.7,0.1-3.6,2.3-4.2c0.3,0.9,0.7,1.8,1,2.7c2.3,5.6,7.8,9,13.4,8.2c5.8-0.8,10.4-5.3,11-11.3
		c0.2-2.7-0.5-5.6-0.8-8.3c5.9-6.8,5.5-18-0.7-25.5c-6.4-7.7-9.5-8-17.1-1.6c-2.7,2.3-5.1,4.8-6.9,7.8c-0.8,1.2-2.4,2.4-1.1,4.3
		c-1-0.8-1,0.2-1.2,0.8c-2.5,0.6-3.6-1.2-4.7-2.8c-5.7-8.2-6.8-17.1-4-26.6c0.6-2.1,1-3.1-1.9-3.5c-6.4-0.9-10.7-5-14-10.2
		c-2.2-3.5-3.3-7.5-4.5-11.5c-10.8,9.1-13.6,9.4-25.2,2.9c-4.4,12.7-10.2,14.8-22.1,8.1c-0.3,0.9-0.6,1.9-0.9,2.8
		c-2.7,8.5-6.7,10.9-15.1,9c-0.8-0.2-1.6-0.7-2.1,0.3c-1.4,2.6-3.1,5.1-4.2,7.9c-1,2.4-1,4.5,2.9,4.3c2.4-0.1,4.9,0.8,7.3,1.2
		c1.1,0.2,1.9,0.8,1.7,2c-0.3,1.3-1.5,1.3-2.4,1c-2.2-0.7-4.5-0.9-6.9-1.1c-3.5-0.3-4.1,1.7-3.5,4.2c0.6,2.5-2.9,6.8,3.1,7
		c6,0.3,11.2,2.9,15.9,6.5c1.1,0.8,3,1.7,1.5,3.5c-1.3,1.4-2.4-0.2-3.4-1c-4.2-3.1-8.8-5.4-14-6c-2.1-0.3-3.3,0.1-3.3,2.8
		c0,17.1,1.4,33.9,10.2,49.2c0.5,0.8,1.3,1.6,0.4,2.7c-11.4,0-22.8,0-34.3,0c-0.1-0.3-0.2-0.7-0.3-1c1.3-1,2.6-2.1,4-3.2
		c-11.3-4.1-21-10.4-29.3-18.7c-11.9-11.8-10.9-24.5,2.5-34.7c9.5-7.2,20.4-11.8,31.8-15c1.4-0.4,2.8-0.8,4.7-1.3
		c-5-3.7-8.7-7.9-10.9-13.2c-6-14.2-0.5-28.5,13.5-34.9c8.5-3.9,17.7-4.5,26.8-4.3c3.5,0.1,5.1-0.6,5.5-4.4c0.6-6.2,4.3-10.6,9.4-14
		C1423.3,1132,1451.9,1131.4,1468.1,1150.3z"/>
	<path fill="#0F020A" d="M427.5,814c-2-0.2-1.8,0.9-1.8,2.4c0,3.6,2.6,7.9,0.2,10.5c-2.1,2.1-6.4,2-9.8,2.8
		c-22.8,5.9-42.6,17.5-60.2,32.8c-1.9,1.6-3.8,3.2-5.7,4.8c-27.5-0.1-54.9-0.1-82.4-0.2c-1.8,0-3.6,0-5.8,0
		c2.6-10.3,6.1-19.7,11.8-28.2c6.4-9.4,15.3-14.1,26.6-14c4.7,0,9.3,0.5,14,0.4c8,0,11.7-2.5,14.2-10c1.8-5.3,3.3-10.8,4.2-16.4
		c3.4-19.6,15.2-31,34-36.1c8.1-2.2,16.3-4.4,24.1-7.8c5-2.2,9.2-5.1,12.3-9.7c6.7-9.9,13.6-19.7,20.3-29.6
		c12.8-19.2,31.2-29.3,53.8-27.2c23.9,2.2,41.1,15.8,49.7,38.9c2,5.4,3.9,11,3.1,16.9c-14-9.1-26.5-19.9-38.7-31.3
		c-0.4,0.7-0.8,1.1-0.9,1.5c-4.8,23.8-20.5,36.2-43.1,41.4c-9.8,2.3-19.8,2-29.8,1.8c-6.6-0.1-12.3,1.8-15.7,8l0.1-0.1
		c-5,3.8-5.8,9.3-5.8,15.1c-1.3,0.8-2.6,1.4-3.9,2.3c-6.6,4.5-9.8,12.5-8,20c1.8,7.6,7.9,13.4,15.3,14.6
		c10.5,1.6,18.1-3.8,22.4-15.9c3.5-1,6.6-1.3,6.2,3.9C428,808.7,427.8,811.4,427.5,814z"/>
	<path fill="#FEB027" d="M1766.9,746.9c-1-9.1-1.7-18.2-3-27.2c-3-20.8-8.5-40.9-17.8-59.8c0.2-2-0.9-3.5-1.7-5.1
		c-3.8-6.6-7.6-13.2-11.4-19.7c22.5-6.5,45-13,67.5-19.4c34.2-9.8,68.4-19.4,102.6-29.1c1-0.3,2-0.4,2.9-0.6
		c-4.4,19.4-12.1,37.6-21.8,54.9C1857.1,689.3,1817.9,724.7,1766.9,746.9z"/>
	<path fill="#D5928E" d="M402,766.1c3.4-6.2,9.1-8.1,15.7-8c10,0.2,19.9,0.5,29.8-1.8c22.6-5.2,38.3-17.6,43.1-41.4
		c0.1-0.4,0.5-0.8,0.9-1.5c12.2,11.4,24.8,22.2,38.7,31.3c0,0-0.1-0.1-0.1-0.1c0.2,3,0,6,0.6,8.9c0.5,2.9-0.2,4-3.1,4.1
		c-2.8,0.1-5.6,0.4-8.3,1.5c-0.9,0.4-1.3,1-1.1,1.9c0.2,1,1.1,1.2,1.9,1.1c1.1-0.2,2.3-0.6,3.4-0.8c6.5-1.3,7.2-0.9,8.3,5.3
		c0.6,2,0.4,3.9-0.3,5.9c-7.6-0.8-13.9,2.3-19.7,6.6c-1.1,0.8-3.1,1.7-1.8,3.4c1.2,1.6,2.7,0.1,3.8-0.7c5.3-4,11.1-6.6,17.9-6.1
		c0.5,16.7-1.2,33.1-7.8,48.7c-0.3,0.9-0.5,1.9-0.8,2.8l0.1-0.1c-1.3,0-1.5,1.2-1.9,1.9c-6,10.7-15.4,14.1-27,12.9
		c-3.9-0.4-7.8-1.2-11.8-1.9c-9.3-4-18.5-8.2-27.4-13c-0.5-0.8-1.2-1-2-1c0,0,0,0,0,0c-0.8-1.9-2.3-2.2-4.1-2c0,0,0,0,0,0
		c-0.6-4-4.4-4.6-6.9-6.4c-4.9-3.6-8.3-8.9-13.8-11.7c0.4-5.2-2.6-4.9-6.2-3.9c-0.3-16.3-9.8-24-25.8-21
		C396.3,775.3,397,769.8,402,766.1c0.2,3,2.5,1.9,4.1,1.9c9.3-0.3,15.7,4.1,20.2,12c0.7,1.2,0.7,3,2.7,3.2c1.1-2.1-0.5-3.5-1.3-4.9
		C422,768.2,413,764.9,402,766.1z M465.7,769.8c-4.1-0.3-8.9,1.1-13.5,3.3c-1.3,0.6-3.2,1.3-2.1,3.2c0.9,1.6,2.4,0.3,3.5-0.2
		c12.4-5.7,23.3-3.7,32.7,6.2c0.9,0.9,1.8,2.6,3.2,1.5c1.6-1.3,0.1-2.7-0.9-3.7C482.7,773.7,475.6,769.8,465.7,769.8z M463.6,754.4
		c-4.7,0.1-9.1,1.6-12.5,5.5c-0.6,0.7-1.3,1.7-0.3,2.6c0.7,0.7,1.6,0.7,2.2,0c5.9-6.3,12.8-5.8,20.1-3c1.1,0.4,2.4,0.7,2.9-0.8
		c0.4-1.5-0.9-2-1.9-2.4C470.8,755.2,467.4,754.5,463.6,754.4z M473.9,797.8c0.1,6.8,5.5,13.1,12.4,16.1c7,3,16,2.9,20.3-1
		C491.9,816.1,480.9,812.3,473.9,797.8z M510.8,792.1c-5.8,4.5-11.6,2.1-17.3-0.2C499.2,797.9,507.8,798.1,510.8,792.1z"/>
	<path fill="#D5928E" d="M1384.3,1287.7c0.9-1,0.1-1.8-0.4-2.7c-8.8-15.3-10.2-32.1-10.2-49.2c0-2.7,1.2-3,3.3-2.8
		c5.3,0.6,9.8,2.9,14,6c1,0.7,2.1,2.4,3.4,1c1.6-1.7-0.4-2.6-1.5-3.5c-4.7-3.6-9.9-6.2-15.9-6.5c-6-0.3-2.6-4.5-3.1-7
		c-0.6-2.6,0-4.6,3.5-4.2c2.3,0.2,4.6,0.4,6.9,1.1c0.9,0.3,2.1,0.4,2.4-1c0.3-1.2-0.6-1.8-1.7-2c-2.4-0.5-4.9-1.4-7.3-1.2
		c-3.9,0.2-3.8-1.9-2.9-4.3c1.1-2.7,2.7-5.3,4.2-7.9c0.5-1,1.3-0.5,2.1-0.3c8.4,1.9,12.4-0.5,15.1-9c0.3-0.9,0.6-1.9,0.9-2.8
		c11.9,6.7,17.8,4.5,22.1-8.1c11.7,6.4,14.4,6.1,25.2-2.9c1.2,4,2.3,8,4.5,11.5c3.4,5.2,7.6,9.4,14,10.2c2.9,0.4,2.5,1.4,1.9,3.5
		c-2.8,9.5-1.8,18.4,4,26.6c1.1,1.6,2.2,3.4,4.7,2.8c0.2,0.1,0.3,0.3,0.5,0.4c-0.1,1.8-2.4,3.2-0.7,6.1c3-5,5.5-9.7,10.2-12.8
		c4.7-3,10-2.6,15.7-2.7c-1.2-2.1-2.3-1.9-3.2-2c-9.2-1-15.8,3.3-21.3,10.1l0.1,0.1c-1.4-1.8,0.3-3.1,1.1-4.3c1.9-3,4.2-5.5,6.9-7.8
		c7.6-6.3,10.7-6.1,17.1,1.6c6.3,7.5,6.6,18.7,0.7,25.5c-0.6-0.2-1.3-0.3-1.7-0.7c-4.2-4.7-9.3-6.2-15.1-3.8
		c-5.7,2.4-7.7,7.3-7.9,13.2c-2.2,0.6-2,2.5-2.3,4.2c-2.4,0.5-3,2.9-4.6,4.3c-14,12.6-29.8,22.3-47.5,28.8c-5.7,1-11.3,2.6-17.2,2.3
		c-6.9-0.3-13-2.4-17.5-8C1386.3,1288.6,1385.7,1287.5,1384.3,1287.7C1384.3,1287.7,1384.3,1287.7,1384.3,1287.7z M1438.4,1227.4
		c-9.8-0.2-17.1,3.6-23.2,10c-0.9,0.9-2.1,2.2-0.8,3.4c1.4,1.3,2.3-0.3,3.2-1.2c4.2-4.5,9.1-7.7,15.2-8.7c5.9-1,11.5,0.2,16.9,2.8
		c1,0.5,2.3,1.3,3.1,0c0.9-1.6-0.5-2.3-1.7-2.9C1446.8,1228.7,1442.3,1227.6,1438.4,1227.4z M1439.2,1212.5
		c-2.8,0.2-5.9,0.6-8.9,1.7c-1.3,0.5-3.4,1-2.5,2.9c0.7,1.6,2.2,0.5,3.5,0.1c6.4-2.1,12.7-2.8,18,2.8c0.7,0.8,1.6,1.5,2.6,0.7
		c1.2-1,0.4-2.1-0.4-3C1448.3,1214.1,1444.2,1212.7,1439.2,1212.5z M1429.4,1255.6c-6.2,13.3-17.3,16.3-30.6,14.3
		C1412.9,1276.4,1429.3,1266.5,1429.4,1255.6z M1410.6,1248.8c-5.5,2.8-11.2,3.9-17,0.6C1398.2,1254.9,1404.8,1254.7,1410.6,1248.8z
		"/>
	<path fill="#D5928E" d="M1489.6,413.7c5.5-1,11.9,3.1,15.6,9.8c5.6,10.3,2.1,22.6-8.3,28.8c-2.6,1.6-4,2.8-1.9,5.6
		c0.6,7.2-1,14.1-2.5,21.1c-2.8,13.2-7.9,25.6-13.5,37.8c-2,0.4-2.2,2.3-3.2,3.6c-6.8,9.4-14.8,16.7-27.7,14.3
		c-6.6-1.2-12.4-4.4-18.2-7.6c-8-5.5-15.3-11.7-21.9-18.8c3.8-0.7,6.2-3.1,8.1-6.3c2.7-1.5,4.4-3.7,4.9-6.8c1.1-0.4,3,0.7,3.1-1.4
		c0.1-1.9-1.6-1.6-2.9-1.8c-8-1.1-15.3,1.1-22,5.2c-2.2-1.5-4.4-3.1-4.4-6.2c1-2.8,3.6-3.6,5.8-5c1.1-0.7,3.4-1,2.5-2.9
		c-1.2-2.3-3-0.4-4.2,0.3c-2.4,1.3-4.6,3.1-6.9,4.7c-2.3-1.2-3.5-3.3-4.3-5.7c1.3-1,2.6-2.1,3.9-3.1c18.5-14.3,28.2-32.8,27.3-56.4
		c-0.2-5.9-1.7-11.6-3-18.4c9.6,9,18.6,17.1,29.4,22.8c5.9,3.2,12.1,5.5,18.9,5.5c1.8,0,3.7,0.1,3.9-2.7c0.3-5.7,3-10.4,6.2-15
		c3.1-1,6.2-2.1,9.3-2.8c1.9-0.4,4.3-1.2,5.7,1.3c-10.4,4.8-14.9,21.1-8.2,28.9c0.6-0.5,0.5-1.1,0.4-1.8c-3-10-1-18.4,7.8-24.7
		C1490.3,415.4,1490.4,414.7,1489.6,413.7z M1459.7,453.2c0.8-0.7,2.4-1.1,1.8-2.6c-0.6-1.4-1.9-1-3-0.7c-2,0.7-4.1,1.3-6.1,2.2
		c-10.7,5.1-15.5,14.1-16.2,25.6c-0.1,1.2-0.5,2.8,1.2,3.5c1.3,0.5,1.7-0.5,2.2-1.4c2.1-0.8,4.6-0.9,5.5-3.5c7-2.7,10.3-8.4,12-15.2
		C1459.2,458.9,1458.9,455.9,1459.7,453.2z M1455.1,519c9.1-1.7,16.9-11.3,16.9-20.9c2-3.9,0.8-7.8-0.5-11.5
		c-1.2-3.4-3.4-6.5-7.5-6.3c-3.9,0.2-5,3.7-5.3,6.9c-1,10.9-5.7,17.7-17.5,19.4c-5.8,0.8-6.5,6.7-1.7,10.4
		C1444.2,520.6,1449.5,521,1455.1,519z M1452.3,441.7c-0.2-1.9-1.8-1.7-3-1.8c-8.3-0.4-13.1,4.6-16.9,11c-0.7,1.1-2.3,2.8-0.3,3.8
		c1.9,1.1,2.4-1,3.1-2.3c3.3-5.9,7.7-10,15-9.5C1451.1,443.2,1452.1,443.1,1452.3,441.7z M1427.9,501c7.1,1.6,13.8-5,11.6-12.3
		C1437.9,495.6,1434.4,499.8,1427.9,501z"/>
	<path fill="#D7938F" d="M319.5,1280.3c-0.9,23.2-1.7,46.4-2.6,69.6c-50.5,0-101.1,0-151.6,0c-2.5,0-5,0.1-6.9-2
		c-0.5-1.2-1-2.4-1.5-3.7c-2.3-6.2-1.1-9.8,4.9-12.5c18-8,37.1-12.8,56-17.7c20.3-5.3,40.6-10.1,61-15c2-0.5,3.7-1.2,4.9-3
		C292.2,1283.1,304.5,1278.7,319.5,1280.3z"/>
	<path fill="#050528" d="M1474.4,415.3c-3.2,4.5-5.9,9.3-6.2,15c-0.2,2.8-2,2.6-3.9,2.7c-6.9,0-13-2.3-18.9-5.5
		c-10.8-5.8-19.9-13.8-29.4-22.8c1.4,6.7,2.8,12.5,3,18.4c0.9,23.6-8.9,42.1-27.3,56.4c-1.3,1-2.6,2-3.9,3.1
		c-9.5-8.2-14.3-19.1-15.6-31.2c-2.6-23.9,6.2-43,27.2-55c20.9-11.9,41.7-9.8,61.2,4.1c0.7,0.5,1.4,0.9,2.1,1.4
		C1467.5,405.4,1470.8,410.5,1474.4,415.3z"/>
	<path fill="#AABAFE" d="M705,557.3c-0.5,3-2.1,5.9-3.6,8.8c-12.2,23.8-24.4,47.7-36.6,71.5c-0.5,1-1.1,2.1-1.6,3.1
		c-3.3,5.8-5.6,6.7-11.8,3.9c-3.8-1.7-7.3-3.9-11-5.8c-22.1-11.3-44.2-22.5-66.3-33.7c-7.3-3.7-8.1-6-4.3-13.4
		c13.1-25.6,26.3-51.2,39.4-76.8c3.3-6.3,6-7.3,12.1-4.1c26.4,13.5,52.7,27,79,40.5C702.7,552.4,705.3,553.5,705,557.3z
		 M692.1,560.6c-0.1-2.7-2.2-3.1-3.8-3.8c-21.9-11.2-44-22.3-65.8-33.7c-4.2-2.2-5.6-1-7.5,2.6c-11,21.9-22,43.7-33.3,65.4
		c-2,3.8-1.3,5.2,2.3,7c22.3,11.3,44.5,22.7,66.6,34.2c2.9,1.5,4.1,1.1,5.6-1.8c10.9-21.5,22-42.9,33-64.4
		C690.4,564.3,691.3,562.3,692.1,560.6z"/>
	<path fill="#AABAFE" d="M1475.7,896c0.4-1.4,0.7-2.9,1.2-4.3c8.9-27.5,17.9-54.9,26.9-82.4c2.3-7,4.5-8,11.5-5.7
		c26.8,8.8,53.7,17.5,80.5,26.3c1.4,0.5,2.9,0.9,4.2,1.6c3.8,2.1,6.3,4,4.4,9.6c-9.7,28.4-18.8,57.1-28.2,85.7
		c-1.7,5.3-3.6,6.2-9,4.4c-28.4-9.2-56.9-18.5-85.3-27.7C1478.2,902.3,1475.4,900.5,1475.7,896z M1565.8,919.8
		c2,0.4,2.1-1.2,2.5-2.4c1.7-5.4,3.4-10.8,5.2-16.1c6.2-18.9,12.3-37.9,18.6-56.8c1.1-3.3,0.8-4.9-2.8-5.8c-3.5-0.8-7-2.1-10.5-3.2
		c-20.5-6.7-41-13.5-61.6-20.2c-1.9-0.6-3.8-1.9-4.9,1.6c-7.9,24.5-16,49-24,73.4c-0.9,2.6-0.6,4,2.6,5
		c24.2,7.7,48.3,15.8,72.5,23.7C1564.2,919.3,1565,919.5,1565.8,919.8z"/>
	<path fill="#050528" d="M1325.5,709.7c-2.9-21.6,3.4-39.5,21.5-52.3c23.2-16.4,55.9-10,71.6,13.7c0.9,1.4,1.9,2.7,2.8,4.1
		c0.1,1.5-1.1,1.9-2.1,2.4c-25.9,14.1-52.5,26.4-82,31C1333.4,709.2,1329.6,710.6,1325.5,709.7z"/>
	<path fill="#074CFB" d="M260.9,587.6c-0.2-5.4,2.1-6.7,5.7-5.9c5.3,1.3,10.6,2.8,15.9,4.4c30.9,9.3,61.7,18.6,92.6,27.9
		c0.5,0.1,1,0.2,1.4,0.4c6.9,2.4,7.6,5.7,2.3,10.7c-11.7,11.1-23.5,22.2-35.2,33.2c-14.9,14-29.8,28.1-44.8,42.1
		c-0.7,0.7-1.4,1.4-2.2,2c-4.8,3.8-7.8,3-9.4-3c-2.5-9.7-4.7-19.4-7-29.1c-6.2-26.2-12.4-52.4-18.5-78.7
		C261.4,590,261.1,588.2,260.9,587.6z M295,690.9c24.7-23.3,48.7-46,73.2-69.1c-32.5-9.7-64.1-19.2-96.3-28.8
		C279.6,625.7,287.2,657.7,295,690.9z"/>
	<path fill="#074CFB" d="M1256.5,1096.9c-1.8,35.9-3.7,73.3-5.6,110.7c-0.4,7.1-3.5,8.7-9.4,4.9c-31.3-20.2-62.7-40.4-93.9-60.7
		c-6.7-4.3-6.4-7.7,0.8-11.4c32.8-16.9,65.6-33.8,98.5-50.6C1253.8,1086.3,1256.7,1088,1256.5,1096.9z M1157.2,1146.6
		c28.5,18.4,56.4,36.4,84.6,54.6c1.7-33.9,3.3-66.8,5-100.5C1216.7,1116.1,1187.3,1131.2,1157.2,1146.6z"/>
	<path fill="#D7938F" d="M1712.4,840.2c11.9,1.1,23.9,1,35.8,2.8c-6.9,24.7-14.3,49.2-24.3,72.8c-2.1,5.1-4.3,10.1-6.5,15.1
		c-2.3,5.2-2.9,5.2-6.8,0.7c2-12,6.9-23.3,8.8-35.2c-0.5-0.1-0.9-0.2-1.4-0.4c-3.4,11.7-6.7,23.4-10.1,35c-2.5-0.6-4.6-2.1-6.6-3.7
		c3.2-11.8,6.4-23.6,9.8-36.5c-3.1,1.5-2.9,3.4-3.3,4.8c-3.1,9.8-4.9,19.9-8.7,29.5c-4.7-2.8-5.3-7.2-4.4-12
		c2.5-12.3,5.1-24.6,7.7-37c0.3-1.2,1-2.5-0.1-3.9c-4.1,3.1-8,6.3-12.2,9.3c-1.6,1.1-3.8,2.5-5.4,0.8c-1.3-1.4,0.3-3.4,1.2-4.9
		c6.5-10.8,14.2-20.8,21.8-30.9C1709.4,844.6,1710.9,842.4,1712.4,840.2z"/>
	<path fill="#0F020A" d="M1056.1,421.9c9.5,0.8,16.6,7.7,22.2,16.6c3.3,5.2,6.1,10.7,9.3,15.9c6.3,10.1,15,10.4,21.7,0.6
		c3.9-5.7,7-12,10.9-17.9c10-15.2,27.3-19.7,41.6-11.2c5.3,3.2,9.2,7.6,12.2,12.8c3,5.2,5.7,10.5,8.9,15.6
		c6.9,10.8,15.7,10.9,22.7,0.3c4-6.1,7.4-12.6,11.4-18.7c5.2-7.9,12.6-12.7,22.2-13.6c3.3-0.3,7.3-0.7,7.9,3.8
		c0.6,4.3-2.6,6.3-6.3,6.9c-7.5,1.2-12.7,5.3-16.5,11.6c-3.7,6.1-7.1,12.4-11.3,18.2c-10.3,14.4-27.1,14.5-37.4,0
		c-4.6-6.5-8-13.8-12.5-20.4c-8.9-13-23.2-13.2-32.7-0.7c-2,2.6-3.7,5.5-5.4,8.4c-2.8,4.7-5.3,9.6-8.8,13.9
		c-4.3,5.2-9.6,8.7-16.5,9.1c-8.4,0.5-14.9-3.4-19.4-10.1c-4.5-6.6-8.3-13.6-12.4-20.4c-3.5-5.7-8.4-9.3-15.2-10.1
		c-3.3-0.3-7.1-0.4-6.8-5.3C1046.1,424.1,1049.8,421.8,1056.1,421.9z"/>
	<path fill="#FDB22C" d="M651.6,1697c-8.6-0.2-14.5-4.2-19.1-10.4c-2.7-3.6-4.8-7.6-7.2-11.4c-1-1.7-1.9-3.5-2.9-5.2
		c-10.9-18.7-27.4-18.8-38.6-0.2c-3.3,5.4-6.3,11-10,16.1c-10.7,14.7-28.7,14-38.4-1.3c-4.1-6.5-7.8-13.2-11.9-19.7
		c-3.4-5.4-8.3-8.5-14.7-9c-3.2-0.2-6.5-0.9-6.5-4.7c0-4,3.3-5.7,6.8-6c5.9-0.5,11.1,1.7,15.7,5.3c4.5,3.5,8.2,7.8,11,12.8
		c2.8,5.1,5.6,10.2,8.8,15.1c6.1,9.2,14.6,9.4,20.9,0.3c3.8-5.5,6.8-11.4,10.4-17.1c8.4-13.3,21.5-19.2,34.7-15.7
		c8.6,2.3,15,7.8,19.5,15.4c2.9,4.9,5.5,9.9,8.4,14.8c1.6,2.8,3.5,5.3,6.1,7.2c4.5,3.4,8.9,3.2,13.2-0.4c3.1-2.6,5.2-6,7.3-9.5
		c3.4-5.7,6.3-11.8,10.5-16.9c6-7.2,13.5-11.1,23.1-10.8c2.3,0.1,4.4,0.7,5.2,3.1c0.9,2.6-0.6,4.6-2.6,5.9c-1.4,0.9-3,1.6-4.6,1.9
		c-6.9,1.1-11.8,5-15.4,10.9c-3.8,6.2-7.5,12.6-11.6,18.7C665.3,1692.7,659.1,1696.7,651.6,1697z"/>
	<path fill="#D7938F" d="M775.3,1075.1c5.6,2.5,11.7,1.9,17.6,2.8c4.2,0.7,8.6,0.5,12.9,1.1c4.6,0.7,7.6,3.6,9.5,7.9
		c-11.9,0.5-23.8-1.5-35.8-0.8c0,0.5,0,1-0.1,1.6c12.2,0.5,24.4,1,36.6,1.5c0.6,2.6,1.3,5.1,1.9,7.7c-12.3,0.1-24.5-1.6-36.8-0.9
		c0,0.5,0,1.1-0.1,1.6c12.3,0.5,24.7,0.9,37,1.4c1.6,6.1,1.2,6.5-4.9,7c-13,1-26,2-39,3.1c-14.8-0.1-29.6-0.2-44.4-0.1
		c-3.6,0-5-0.8-4.9-4.7c0.3-8.1,0.3-16.3,0-24.5c-0.1-3.2,1-4.7,4-5.8c15.5-5.5,30.9-11.2,46.9-15.1c2.7,0.3,4.1,1.3,1.9,4
		c-0.8,1-1.4,2.1-2.1,3.2c-4.8,1.8-8.7,5.3-14.4,8.3c3.8,0.4,5.9,0.6,8,0.9C771.2,1075.6,773.3,1076.6,775.3,1075.1z"/>
	<path fill="#AABAFE" d="M720.2,932.5c0-23.8,0-46.1,0-68.3c0-1.6-0.8-3.7,0.8-4.6c1.9-1.1,3.3,0.8,4.8,1.7
		c19,11.5,38.1,23.1,57,34.7c5,3,4.9,3.1-0.1,5.8c-19.4,10.6-38.7,21.3-58,32C721.4,935.5,719.5,935.5,720.2,932.5z"/>
	<path fill="#D7938F" d="M1190.2,641c-2.1,10.7-4.3,21.4-6.4,32.1c-19-0.1-38.1-0.2-57.1-0.3c1.8-10.6,3.6-21.2,5.4-31.8
		c6-0.8,12.1-0.9,19-2.6c-6.5-3.4-11.7-6.7-16.5-10.9c-0.5-1.3,0.1-2.5,0.5-3.8c11.5,0.9,22,5.5,32.8,9
		C1175.5,635.2,1182.8,638.2,1190.2,641z"/>
	<path fill="#0F020A" d="M482.5,840c3.9,0.6,7.8,1.5,11.8,1.9c11.6,1.2,21-2.2,27-12.9c0.4-0.8,0.6-2,1.9-1.9
		c0.3,4-0.9,7.9-1.5,11.8c-0.8,5.7-1.8,11.3-1,17.3c1.1,7.3-2.7,11.1-9.9,11.1c-7,0-14,0.1-20.9,0.1c-2.4-6.1-4.8-12.3-7.3-18.4
		c-0.7-1.7-0.4-2.8,0.9-3.9C486,842.7,485.3,841.1,482.5,840z"/>
	<path fill="#FDB22C" d="M1256.6,519.9c8.4,0.1,15.2,6.9,15.2,15.2c0,8.4-7.4,15.7-15.7,15.4c-8.6-0.2-15.4-7.4-15.1-15.9
		C1241.2,526.2,1248,519.8,1256.6,519.9z"/>
	<path fill="#FDB22C" d="M1190.4,1214c8.7-0.1,15.6,6.7,15.5,15.4c-0.1,8.4-6.8,15.2-15.2,15.3c-8.5,0.1-15.6-6.9-15.6-15.5
		C1175.1,1221,1182.1,1214,1190.4,1214z"/>
	<path fill="#FEB027" d="M1309.8,897.2c0-9,6-15.3,14.8-15.3c9.1-0.1,15.5,6.2,15.5,15.1c0,8.7-6.4,15.1-15.1,15.1
		C1316.3,912.1,1309.9,905.8,1309.8,897.2z"/>
	<path fill="#FDB22C" d="M1429.9,527.1c5.8,3.2,11.6,6.3,18.2,7.6c12.9,2.4,20.8-4.9,27.7-14.3c0.9-1.3,1.2-3.2,3.2-3.6
		c1.4,1.4,2.3,3.4,4.2,4.3c-12.9,10.1-25.8,20.2-38.8,30.2c-3.9,3-7.4,6.6-12.1,8.6C1430.9,549,1429.5,538.1,1429.9,527.1z"/>
	<path fill="#FDB22C" d="M942,449.8c-0.1,5.9-4.7,10.4-10.5,10.2c-5.8-0.2-10.3-4.9-10.2-10.6c0.2-5.5,4.8-10,10.3-10
		C937.5,439.4,942.1,444,942,449.8z"/>
	<path fill="#FDB22C" d="M724.6,1391c-5.7,0-10.5-4.9-10.4-10.5c0.1-5.6,5.1-10.4,10.7-10.2c5.5,0.2,10,4.8,10.1,10.3
		C735.1,1386.3,730.3,1391,724.6,1391z"/>
	<path fill="#FDB22C" d="M1157,1017.7c0,6-4.3,10.3-10.3,10.3c-5.6-0.1-10.2-4.4-10.3-9.9c-0.1-5.8,4.9-10.8,10.7-10.7
		C1152.6,1007.6,1157,1012.1,1157,1017.7z"/>
	<path fill="#FDB22C" d="M636.4,961.9c-5.3,0.1-10.2-4.6-10.4-10c-0.2-5.7,4.3-10.6,10-10.8c5.7-0.2,10.5,4.4,10.6,10.2
		C646.8,957,642.1,961.8,636.4,961.9z"/>
	<path fill="#FDB22C" d="M1210,931c5.9,0.1,10.2,4.6,10.1,10.6c-0.1,5.5-4.7,10.1-10.2,10.1c-5.7,0-10.5-4.8-10.4-10.5
		C1199.5,935.4,1204.1,930.9,1210,931z"/>
	<path fill="#FDB22C" d="M1348,1075c-5.8,0-10.5-4.5-10.6-10.2c-0.1-5.6,4.7-10.4,10.5-10.5c5.4,0,10.1,4.6,10.2,10.1
		C1358.2,1070.4,1353.8,1075,1348,1075z"/>
	<path fill="#FDB22C" d="M145.9,1223.3c0-5.8,4.2-10.2,9.9-10.4c5.8-0.1,10.7,4.5,10.7,10.2c0,5.8-4.8,10.5-10.5,10.5
		C150.5,1233.6,146,1228.9,145.9,1223.3z"/>
	<path fill="#FDB22C" d="M1802.5,1038.2c-5.7-0.1-10.1-4.5-10.2-10.1c0-5.9,4.5-10.3,10.5-10.2c5.9,0.1,10.1,4.3,10.1,10.1
		C1813,1033.8,1808.4,1038.2,1802.5,1038.2z"/>
	<path fill="#FDB22C" d="M683.4,391.9c5.9,0.2,9.8,4.4,9.8,10.3c-0.1,6-4.6,10.2-10.6,10c-5.9-0.2-9.9-4.7-9.7-10.9
		C673.1,395.5,677.3,391.7,683.4,391.9z"/>
	<path fill="#FDB22C" d="M505.3,508.9c5.9,0,9.9,4.2,9.9,10.1c0,6-4.3,10.3-10.4,10.2c-5.8-0.1-9.9-4.3-9.9-10.2
		C494.8,512.9,499,508.9,505.3,508.9z"/>
	<path fill="#FDB22C" d="M1190.4,1429c-4.3-0.1-7.8-3.6-7.9-8c0-4.6,3.6-8.2,8.2-8.1c4.5,0.1,7.9,3.5,7.9,7.9
		C1198.8,1425.2,1194.9,1429,1190.4,1429z"/>
	<path fill="#050528" d="M1416.1,502c-1.9,3.1-4.3,5.6-8.1,6.3c-2.8-3.7-6.9-6.5-8.8-11c6.8-4.2,14-6.3,22-5.2
		c1.3,0.2,3-0.1,2.9,1.8c-0.1,2.1-2,1-3.1,1.4c-2.7-0.2-5.4-0.5-8.4,0.2C1414.4,497.8,1415.8,499.6,1416.1,502z"/>
	<path fill="#050528" d="M1699.1,925.2c3.8-9.6,5.6-19.7,8.7-29.5c0.5-1.5,0.2-3.3,3.3-4.8c-3.4,12.8-6.6,24.6-9.8,36.5
		C1698.5,928.8,1699.3,926.5,1699.1,925.2z"/>
	<path fill="#050528" d="M1707.9,931.1c3.4-11.7,6.7-23.4,10.1-35c0.5,0.1,0.9,0.2,1.4,0.4c-1.9,12-6.8,23.3-8.8,35.2
		C1709.4,932.6,1708.5,932.5,1707.9,931.1z"/>
	<path fill="#FDB22C" d="M429,375.9c-3.1-0.3-5.4-1.9-5.5-5.2c-0.1-3.3,1.9-5.3,5.1-5.4c3-0.1,5,1.7,5.2,4.8
		C434.1,373.3,432.2,375.2,429,375.9z"/>
	<path fill="#FDB22C" d="M1843.8,1151.2c-0.4,3.6-2.4,5.4-5.7,5.2c-3.1-0.2-4.8-2.3-4.8-5.3c0.1-3.1,2-5,5.1-5
		C1841.8,1146,1843.5,1148.1,1843.8,1151.2z"/>
	<path fill="#FDB22C" d="M189.6,946.6c-3.1-0.5-5.1-2.1-5.1-5.3c0-3.3,2-5.3,5.3-5.2c3.1,0.1,5,2,5,5.1
		C195,944.7,192.6,946.1,189.6,946.6z"/>
	<path fill="#FDB22C" d="M341.9,1645.2c0.1-3.4,1.8-5.3,5.2-5.2c3.1,0.1,4.9,2,4.9,5.1c0,3.4-2,5.3-5.3,5.2
		C343.7,1650.2,341.8,1648.5,341.9,1645.2z"/>
	<path fill="#0F020A" d="M531.6,775.6c-6.8-0.5-12.6,2.1-17.9,6.1c-1.2,0.9-2.6,2.4-3.8,0.7c-1.3-1.7,0.7-2.6,1.8-3.4
		c5.9-4.3,12.2-7.4,19.7-6.6C531.5,773.5,531.6,774.6,531.6,775.6z"/>
	<path fill="#FDB22C" d="M1040.8,495.6c0.3-3,2-4.8,5.1-4.7c3.3,0.1,5.2,2,5.1,5.3c-0.1,3.4-2.3,5-5.5,4.8
		C1042.2,500.8,1040.9,498.7,1040.8,495.6z"/>
	<path fill="#0F020A" d="M531.7,766.6c-1.1-6.2-1.8-6.7-8.3-5.3c-1.1,0.2-2.3,0.6-3.4,0.8c-0.9,0.1-1.7,0-1.9-1.1
		c-0.2-0.9,0.2-1.6,1.1-1.9c2.7-1.1,5.5-1.4,8.3-1.5c3-0.1,3.6-1.2,3.1-4.1c-0.5-2.9-0.4-5.9-0.6-8.9
		C532,751.8,532.4,759.2,531.7,766.6z"/>
	<path fill="#0F020A" d="M1392,488.1c2.3-1.6,4.5-3.3,6.9-4.7c1.2-0.7,3-2.6,4.2-0.3c1,2-1.3,2.2-2.5,2.9c-2.1,1.4-4.8,2.2-5.8,5
		C1392.8,491.1,1392.2,489.8,1392,488.1z"/>
	<path fill="#0F020A" d="M523,827.1c0.3-0.9,0.5-1.9,0.8-2.8C523.6,825.3,524.4,826.5,523,827.1z"/>
	<path fill="#D7938F" d="M1474.8,1278c0.2,3.2,0.5,6.5,0.7,9.7c-0.1,0.9-0.2,1.7,0.5,2.4c-9.6,11.4-22.3,16.9-36.8,18.8
		c-5.8,0.8-11.6,1.3-17.4,0.7c0.1-2.5,0.2-5.1,0.3-7.6c3.1-0.2,6.2,0.1,9.4-0.7C1447.9,1297.2,1462.3,1289.4,1474.8,1278z"/>
	<path fill="#050528" d="M1086,1559.6c12.1,0,24.2,0,36.3,0c-12.3,1.6-24.7,1.4-37.1,2.1C1085,1560.8,1085,1560,1086,1559.6z"/>
	<path fill="#050528" d="M1088.1,1549.7c12,0,24,0,35.9,0c0,0.2,0,0.5,0.1,0.7c-12.3,0.5-24.7,1-37,1.5
		C1086.7,1550.8,1087,1550,1088.1,1549.7z"/>
	<path fill="#FEFEFE" d="M1128.2,1528.7c4.3,2.5,8.5,5,13.3,7.9c-4.6,1.8-9,1.4-13.3,2C1128.2,1535.2,1128.2,1531.9,1128.2,1528.7z"
		/>
	<path fill="#FEFEFE" d="M1134.7,627.5c4.8,4.1,10,7.5,16.5,10.9c-6.9,1.7-13,1.9-19,2.6C1132.6,636.4,1133.1,631.8,1134.7,627.5z"
		/>
	<path fill="#050528" d="M818,1099c-12.3-0.5-24.7-0.9-37-1.4c0-0.5,0-1.1,0.1-1.6c12.3-0.6,24.5,1,36.8,0.9
		C818.4,1097.6,818.5,1098.3,818,1099z"/>
	<path fill="#050528" d="M815.9,1089.3c-12.2-0.5-24.4-1-36.6-1.5c0-0.5,0-1,0.1-1.6c11.9-0.8,23.8,1.3,35.8,0.8
		C816,1087.5,817.5,1087.9,815.9,1089.3z"/>
	<path fill="#FEFEFE" d="M775.3,1075.1c-2,1.5-4.1,0.5-6.2,0.3c-2.1-0.3-4.2-0.5-8-0.9c5.8-3,9.6-6.4,14.4-8.3
		C775.5,1069.1,775.4,1072.1,775.3,1075.1z"/>
	<path fill="#FEFEFE" d="M1403.8,1599.3c-0.9-0.5-0.8-1.3-0.6-2.1c21.9-12.7,39.3-30.1,53.5-50.7c23.9-34.7,33.1-73.2,29.7-115
		c-0.3-3.5-0.6-7-0.8-10.4c0-0.2,0.4-0.5,0.6-0.8c1.7,0.1,1.5,1.5,1.6,2.5c7.5,73.4-18.5,131.5-79.2,173.8
		C1407.1,1597.7,1405.4,1598.4,1403.8,1599.3z"/>
	<path fill="#FEFEFE" d="M500,1137c-25.3-14.7-45-35.1-60.2-59.9c-21.6-35-28.5-73.3-24.4-113.9c0.2-1.9,0.6-3.7,1-6.3
		c2.1,1.9,1.4,3.4,1.2,4.7c-7.2,72.8,19.3,129.9,79.6,171.4c2.4,1.6,2.4,1.6,2.7,4C499.9,1137,500,1137,500,1137z"/>
	<path fill="#C57675" d="M428.3,806c5.5,2.8,8.9,8.2,13.8,11.7c2.5,1.8,6.4,2.4,6.9,6.4c-7.5-2.7-14.5-6.2-21.5-10.1
		C427.8,811.4,428,808.7,428.3,806z"/>
	<path fill="#C57675" d="M449,824.1c1.8-0.2,3.3,0.1,4.1,2C451.5,825.8,450.1,825.3,449,824.1z"/>
	<path fill="#C57675" d="M453,826c0.8,0,1.6,0.2,2,1C454.2,827.1,453.5,826.7,453,826z"/>
	<path fill="#050528" d="M1733,635c3.8,6.6,7.7,13.1,11.4,19.7c0.9,1.6,2,3.1,1.7,5.1c-19.9,12.2-40,12.9-59.4-0.6
		c-27.4-19.1-28.7-59.1-3.2-80.7c0.5-0.4,0.9-1,1.3-1.4c0.3,0,0.7,0.1,1,0.1c0.3,0.2,0.5,0.5,0.8,0.7c0.4,0.4,0.8,0.7,1.2,1.1
		c0,0-0.1-0.1-0.1-0.1c0.4,0.4,0.7,0.7,1.1,1.1c0,0-0.1-0.1-0.1-0.1c0.4,0.5,0.7,0.9,1.1,1.4C1705.1,598.6,1720.1,616,1733,635z"/>
	<path fill="#FEFEFE" d="M1686,577.3c-0.3,0-0.7-0.1-1-0.1c-6.7-7.4-13.3-14.9-20-22.2c-20.1-22-40-44.2-64.6-61.3
		c-24-16.7-53.7-10.7-70.5,13.4c-9.8,14-12.7,29.8-11.7,46.4c0.3,5.2,5.4,7.7,8.4,11.3c4.1,5,9,9.3,13.5,14c0.9,1,3.4,2.4-0.1,3.3
		c-0.3-0.1-0.6-0.2-0.9-0.4c-14.1-15.8-29-30.9-43.8-46.2c-3.5-3.6-6.7-7.3-10.1-10.9c-0.9-0.9-1.2-1.9-1.1-3.1
		c0.3-0.1,0.7-0.2,1-0.3c0.3,0.2,0.6,0.3,0.9,0.3c0.2,1.5,1.4,2.2,2.3,3.2c7.8,8.2,15.6,16.4,23.5,24.5c1.1,1.1,1.9,2.7,4.2,3.1
		c-0.2-9.2,0.2-18.2,2.7-27.1c6.8-24.3,25.3-39.9,50.3-43.5c14.6-2.1,25.5,4.3,36.1,12.2c21,15.7,39.1,34.5,56.5,54
		c6.5,7.3,13.1,14.6,19.7,21.9C1683.2,572.1,1685.5,574.1,1686,577.3z"/>
	<path fill="#C57675" d="M1485,521.3c-0.3,0.1-0.7,0.2-1,0.3c-0.3-0.2-0.6-0.3-0.9-0.4c-1.9-0.9-2.8-2.9-4.2-4.3
		c5.6-12.2,10.7-24.6,13.5-37.8c1.5-7,3.1-13.9,2.5-21.1c3.6,1.7,5.2,6.1,9.2,7.4c0.6,4.2,1.2,8.5,1.8,12.7
		C1501.6,493.7,1495.8,508.7,1485,521.3z"/>
	<path fill="#D7938F" d="M1485,521.3c10.8-12.5,16.6-27.5,20.8-43.2c1.9,18.4-4,33.3-19.9,43.5
		C1485.6,521.6,1485.3,521.5,1485,521.3z"/>
	<path fill="#FEFEFE" d="M1689.9,581.4c-0.4-0.5-0.7-0.9-1.1-1.4C1689.2,580.5,1689.6,580.9,1689.9,581.4z"/>
	<path fill="#FEFEFE" d="M1689,580.1c-0.4-0.4-0.7-0.7-1.1-1.1C1688.2,579.4,1688.6,579.8,1689,580.1z"/>
	<path fill="#FEFEFE" d="M1688,579.1c-0.4-0.4-0.8-0.7-1.2-1.1C1687.2,578.4,1687.6,578.7,1688,579.1z"/>
	<path fill="#0F020A" d="M1489.6,413.7c0.8,0.9,0.7,1.7-0.3,2.4c-8.7,6.3-10.7,14.7-7.8,24.7c0.2,0.7,0.2,1.3-0.4,1.8
		c-6.7-7.8-2.2-24.1,8.2-28.9C1489.4,413.7,1489.6,413.7,1489.6,413.7z"/>
	<path fill="#C57675" d="M1474.8,1278c-12.5,11.4-26.9,19.1-43.3,23.3c-3.2,0.8-6.3,0.4-9.4,0.7c-0.1-2.3-0.2-4.6-0.4-6.9
		c17.7-6.6,33.5-16.2,47.5-28.8c1.6-1.4,2.2-3.8,4.6-4.3C1474.1,1267.3,1474.5,1272.7,1474.8,1278z"/>
	<path fill="#FEFEFE" d="M1476.1,1257.8c0.2-5.8,2.2-10.8,7.9-13.2c5.8-2.4,10.9-0.9,15.1,3.8c0.4,0.4,1.1,0.5,1.7,0.7
		c0.3,2.8,1,5.6,0.7,8.3c-0.5,6-5.2,10.5-11,11.3c-5.6,0.8-11.2-2.6-13.4-8.2C1476.8,1259.6,1476.4,1258.7,1476.1,1257.8z"/>
	<path fill="#D5928E" d="M1473.8,1234.8c0.2-0.5,0.2-1.5,1.2-0.8c0,0-0.1-0.1-0.1-0.1c-0.2,0.4-0.5,0.8-0.7,1.3
		C1474.1,1235.1,1473.9,1234.9,1473.8,1234.8z"/>
	<path fill="#FEB027" d="M396.3,781.1c16-3.1,25.5,4.7,25.8,21c-4.3,12.2-11.9,17.5-22.4,15.9c-7.4-1.1-13.5-7-15.3-14.6
		c-1.8-7.5,1.4-15.5,8-20C393.7,782.5,395,781.8,396.3,781.1z M396.8,784c-7.3,2.3-12,10.3-10.5,18c1.6,8.3,9,14.4,17.4,14.1
		c8.1-0.3,14.6-6.1,15.5-14c2.2-6.8-0.8-12-5.7-15.9C408.7,782.3,402.9,780.3,396.8,784z"/>
	<path fill="#0F020A" d="M465.7,769.8c9.9,0,17,3.9,22.9,10.2c1,1.1,2.5,2.4,0.9,3.7c-1.3,1.1-2.3-0.5-3.2-1.5
		c-9.4-9.9-20.3-11.9-32.7-6.2c-1.1,0.5-2.6,1.8-3.5,0.2c-1.1-1.9,0.8-2.6,2.1-3.2C456.8,770.9,461.5,769.5,465.7,769.8z"/>
	<path fill="#0F020A" d="M463.6,754.4c3.8,0,7.2,0.7,10.5,2c1,0.4,2.4,0.9,1.9,2.4c-0.5,1.6-1.8,1.2-2.9,0.8
		c-7.3-2.9-14.2-3.4-20.1,3c-0.6,0.6-1.5,0.7-2.2,0c-0.9-0.9-0.3-1.9,0.3-2.6C454.4,756,458.8,754.5,463.6,754.4z"/>
	<path fill="#0F020A" d="M473.9,797.8c7,14.5,18,18.3,32.6,15.1c-4.2,3.9-13.3,4-20.3,1C479.3,811,473.9,804.7,473.9,797.8z"/>
	<path fill="#0F020A" d="M402,766.1c11-1.2,20,2.1,25.7,12.1c0.8,1.4,2.4,2.8,1.3,4.9c-2-0.2-2.1-2-2.7-3.2
		c-4.5-7.8-10.9-12.3-20.2-12C404.5,768,402.2,769.1,402,766.1C402.1,766,402,766.1,402,766.1z"/>
	<path fill="#0F020A" d="M510.8,792.1c-3,6-11.6,5.9-17.3-0.2C499.2,794.1,505,796.5,510.8,792.1z"/>
	<path fill="#0F020A" d="M1438.4,1227.4c3.9,0.2,8.4,1.3,12.6,3.4c1.2,0.6,2.7,1.3,1.7,2.9c-0.8,1.3-2.1,0.5-3.1,0
		c-5.4-2.6-10.9-3.8-16.9-2.8c-6.2,1-11,4.3-15.2,8.7c-0.9,0.9-1.8,2.5-3.2,1.2c-1.3-1.2,0-2.5,0.8-3.4
		C1421.3,1231,1428.6,1227.2,1438.4,1227.4z"/>
	<path fill="#0F020A" d="M1439.2,1212.5c5,0.2,9.2,1.6,12.3,5.2c0.8,0.9,1.6,2,0.4,3c-0.9,0.8-1.8,0.1-2.6-0.7
		c-5.3-5.6-11.5-4.8-18-2.8c-1.2,0.4-2.7,1.5-3.5-0.1c-0.9-2,1.2-2.4,2.5-2.9C1433.2,1213.1,1436.4,1212.7,1439.2,1212.5z"/>
	<path fill="#0F020A" d="M1429.4,1255.6c0,10.8-16.4,20.7-30.6,14.3C1412.1,1271.9,1423.1,1268.9,1429.4,1255.6z"/>
	<path fill="#0F020A" d="M1474.2,1235.2c0.2-0.4,0.5-0.8,0.7-1.3c5.5-6.8,12.1-11.1,21.3-10.1c0.9,0.1,2-0.2,3.2,2
		c-5.6,0.1-11-0.3-15.7,2.7c-4.7,3.1-7.3,7.8-10.2,12.8C1471.9,1238.5,1474.1,1237,1474.2,1235.2z"/>
	<path fill="#0F020A" d="M1410.6,1248.8c-5.7,5.9-12.4,6.1-17,0.6C1399.4,1252.7,1405,1251.6,1410.6,1248.8z"/>
	<path fill="#0F020A" d="M1455.1,519c-5.5,2-10.9,1.6-15.6-2c-4.8-3.7-4.1-9.6,1.7-10.4c11.7-1.7,16.4-8.5,17.5-19.4
		c0.3-3.2,1.4-6.7,5.3-6.9c4.1-0.2,6.3,2.8,7.5,6.3c1.3,3.7,2.5,7.6,0.5,11.5C1458.7,497.5,1451.8,506.1,1455.1,519z"/>
	<path fill="#050528" d="M1457,461.1c-1.7,6.9-5,12.5-12,15.2c-6-2.8-6-2.8-5.5,3.5c-0.5,0.9-1,1.9-2.2,1.4
		c-1.6-0.7-1.2-2.2-1.2-3.5c0.8-11.5,5.5-20.4,16.2-25.6c1.9-0.9,4-1.5,6.1-2.2c1.1-0.4,2.5-0.8,3,0.7c0.6,1.5-1,1.8-1.8,2.6
		c-3.3-0.3-5.6,2-8.5,3.3C1453.5,457.8,1455.5,459.1,1457,461.1z"/>
	<path fill="#D7938F" d="M1455.1,519c-3.3-13,3.7-21.5,16.9-20.9C1471.9,507.7,1464.1,517.4,1455.1,519z"/>
	<path fill="#0F020A" d="M1452.3,441.7c-0.2,1.4-1.2,1.4-2.2,1.4c-7.3-0.5-11.7,3.6-15,9.5c-0.7,1.2-1.2,3.3-3.1,2.3
		c-1.9-1.1-0.3-2.7,0.3-3.8c3.8-6.5,8.7-11.4,16.9-11C1450.5,440,1452.1,439.8,1452.3,441.7z"/>
	<path fill="#0F020A" d="M1427.9,501c6.4-1.3,10-5.4,11.6-12.3C1441.7,496,1435,502.7,1427.9,501z"/>
	<path fill="#FEFEFE" d="M1457,461.1c-1.5-2-3.5-3.3-5.8-4.7c2.9-1.3,5.2-3.6,8.5-3.3C1458.9,455.9,1459.2,458.9,1457,461.1z"/>
	<path fill="#FEFEFE" d="M1416.1,502c-0.3-2.4-1.7-4.2-3.5-6.6c3-0.7,5.7-0.4,8.4-0.2C1420.5,498.3,1418.8,500.5,1416.1,502z"/>
	<path fill="#FEFEFE" d="M1439.5,479.8c-0.5-6.3-0.5-6.3,5.5-3.5C1444.1,479,1441.6,479,1439.5,479.8z"/>
	<path fill="#FEFEFE" d="M692.1,560.6c-0.8,1.7-1.7,3.6-2.7,5.6c-11,21.5-22.1,42.9-33,64.4c-1.5,2.9-2.6,3.4-5.6,1.8
		c-22.1-11.5-44.3-23-66.6-34.2c-3.6-1.8-4.3-3.2-2.3-7c11.3-21.7,22.3-43.6,33.3-65.4c1.8-3.6,3.3-4.8,7.5-2.6
		c21.8,11.4,43.8,22.5,65.8,33.7C689.9,557.6,692,557.9,692.1,560.6z"/>
	<path fill="#FEFEFE" d="M1565.8,919.8c-0.8-0.3-1.6-0.5-2.4-0.8c-24.1-7.9-48.3-15.9-72.5-23.7c-3.2-1-3.4-2.4-2.6-5
		c8-24.5,16.1-48.9,24-73.4c1.1-3.5,3-2.3,4.9-1.6c20.5,6.7,41,13.5,61.6,20.2c3.5,1.1,6.9,2.4,10.5,3.2c3.6,0.9,3.9,2.5,2.8,5.8
		c-6.3,18.9-12.5,37.9-18.6,56.8c-1.8,5.4-3.4,10.8-5.2,16.1C1567.9,918.6,1567.8,920.2,1565.8,919.8z"/>
	<path fill="#FEFEFE" d="M295,690.9c-7.8-33.1-15.4-65.2-23.1-98c32.3,9.7,63.8,19.1,96.3,28.8C343.7,644.9,319.7,667.5,295,690.9z"
		/>
	<path fill="#FEFEFE" d="M1157.2,1146.6c30.2-15.4,59.5-30.5,89.6-45.9c-1.7,33.6-3.3,66.6-5,100.5
		C1213.6,1183,1185.7,1165,1157.2,1146.6z"/>
	<path fill="#0F020A" d="M419.2,802.2c-0.9,7.8-7.4,13.7-15.5,14c-8.4,0.3-15.9-5.7-17.4-14.1c-1.4-7.7,3.2-15.7,10.5-18
		C398.9,795.5,407.1,802,419.2,802.2z"/>
	<path fill="#D5928E" d="M419.2,802.2c-12.1-0.1-20.3-6.7-22.4-18.1c6.2-3.8,11.9-1.7,16.8,2.2C418.4,790.1,421.4,795.4,419.2,802.2
		z"/>
</g>
</svg>
